<?xml version="1.0" encoding="UTF-8" standalone="no"?>
<!-- Created with Inkscape (http://www.inkscape.org/) -->

<svg
   width="203.83711mm"
   height="183.21918mm"
   viewBox="0 0 203.83711 183.21918"
   version="1.1"
   id="svg1"
   xml:space="preserve"
   inkscape:export-filename="bitmap.svg"
   inkscape:export-xdpi="96"
   inkscape:export-ydpi="96"
   xmlns:inkscape="http://www.inkscape.org/namespaces/inkscape"
   xmlns:sodipodi="http://sodipodi.sourceforge.net/DTD/sodipodi-0.dtd"
   xmlns="http://www.w3.org/2000/svg"
   xmlns:svg="http://www.w3.org/2000/svg"><sodipodi:namedview
     id="namedview1"
     pagecolor="#ffffff"
     bordercolor="#000000"
     borderopacity="0.25"
     inkscape:showpageshadow="2"
     inkscape:pageopacity="0.0"
     inkscape:pagecheckerboard="0"
     inkscape:deskcolor="#d1d1d1"
     inkscape:document-units="mm" /><defs
     id="defs1" /><g
     inkscape:label="Capa 1"
     inkscape:groupmode="layer"
     id="layer1"
     transform="translate(-4.6744491,-44.154998)"><g
       id="g1"
       transform="matrix(2.2278242,0,0,1.9769941,-126.76003,-314.03518)"><path
         style="display:inline;fill:#d0d0d0;fill-opacity:1"
         d="m 63.053066,269.53055 c 3.35e-4,-2.32833 0.04081,-3.24541 0.08995,-2.03796 0.04914,1.20746 0.04886,3.11246 -6.09e-4,4.23334 -0.04947,1.12087 -0.08967,0.13295 -0.08934,-2.19538 z m 26.0529,2.84427 c -0.329107,-0.41964 -0.319749,-0.429 0.0999,-0.0999 0.254662,0.19972 0.463021,0.40808 0.463021,0.46302 0,0.21776 -0.217272,0.0776 -0.562916,-0.36313 z m 24.975764,-7.92241 c 0.25743,-0.0671 0.61462,-0.0627 0.79375,0.01 0.17913,0.0725 -0.0315,0.12736 -0.46806,0.12197 -0.43656,-0.005 -0.58312,-0.0647 -0.32569,-0.13177 z m 2.25092,-0.0107 c 0.62231,-0.0559 1.57481,-0.0551 2.11666,0.002 0.54186,0.0568 0.0327,0.10258 -1.13147,0.10162 -1.16417,-9.6e-4 -1.6075,-0.0475 -0.98519,-0.10337 z m 23.87165,-17.36832 c 0,-0.055 0.20836,-0.26331 0.46302,-0.46303 0.41964,-0.3291 0.429,-0.31974 0.0999,0.0999 -0.34564,0.44073 -0.56291,0.58089 -0.56291,0.36313 z m 10.12984,-25.16782 c 0.002,-0.7276 0.0534,-0.99386 0.11418,-0.59167 0.0608,0.40218 0.0592,0.99749 -0.004,1.32291 -0.0628,0.32542 -0.11256,-0.004 -0.11057,-0.73124 z m -54.208105,-27.7151 -0.504028,-0.59532 0.595313,0.50403 c 0.559446,0.47366 0.715761,0.6866 0.504027,0.6866 -0.05021,0 -0.318097,-0.26789 -0.595312,-0.59531 z m 3.298681,-5.42396 c -0.329107,-0.41964 -0.319749,-0.429 0.09989,-0.0999 0.254662,0.19972 0.463021,0.40808 0.463021,0.46303 0,0.21776 -0.217272,0.0776 -0.562916,-0.36313 z m -19.687655,-2.24896 -1.31297,-1.38906 1.389062,1.31297 c 0.763984,0.72213 1.389063,1.34721 1.389063,1.38906 0,0.19743 -0.245119,-0.0222 -1.465155,-1.31297 z"
         id="path8" /><path
         style="display:inline;fill:#b9b9b9;fill-opacity:1"
         d="m 113.50227,273.21267 c 0.0127,-0.30822 0.0754,-0.37092 0.15985,-0.15985 0.0764,0.19099 0.067,0.4192 -0.0209,0.50712 -0.0879,0.0879 -0.15045,-0.0684 -0.13896,-0.34727 z m 0.0828,-4.07899 c 0,-1.96453 0.0417,-2.76821 0.0926,-1.78594 0.0509,0.98226 0.0509,2.58961 0,3.57187 -0.0509,0.98227 -0.0926,0.1786 -0.0926,-1.78593 z m -8.37187,0.8831 c 0.1819,-0.0734 0.47956,-0.0734 0.66146,0 0.1819,0.0734 0.0331,0.13345 -0.33073,0.13345 -0.3638,0 -0.51263,-0.0601 -0.33073,-0.13345 z m 1.32292,0 c 0.1819,-0.0734 0.47956,-0.0734 0.66146,0 0.1819,0.0734 0.0331,0.13345 -0.33073,0.13345 -0.3638,0 -0.51263,-0.0601 -0.33073,-0.13345 z m 10.05417,-12.44691 c 0.32742,-0.0631 0.8632,-0.0631 1.19062,0 0.32742,0.0631 0.0595,0.11466 -0.59531,0.11466 -0.65485,0 -0.92274,-0.0516 -0.59531,-0.11466 z m -53.578128,-0.27556 c 1.85539,-0.0455 4.891484,-0.0455 6.746875,0 1.85539,0.0455 0.337343,0.0827 -3.373438,0.0827 -3.710781,0 -5.228828,-0.0372 -3.373437,-0.0827 z m 10.114604,-23.35022 c 0,-12.73307 0.0323,-17.94205 0.07178,-11.57552 0.03948,6.36654 0.03948,16.78451 0,23.15104 -0.03948,6.36654 -0.07178,1.15756 -0.07178,-11.57552 z m -14.128612,22.33525 c 0.0127,-0.30823 0.07539,-0.37092 0.159852,-0.15986 0.07643,0.191 0.06703,0.4192 -0.02089,0.50712 -0.08792,0.0879 -0.150452,-0.0684 -0.138964,-0.34726 z m 80.544736,-8.57691 c 0.26339,-0.29105 0.53842,-0.52917 0.61118,-0.52917 0.0728,0 -0.0832,0.23812 -0.3466,0.52917 -0.26339,0.29104 -0.53842,0.52916 -0.61118,0.52916 -0.0728,0 0.0832,-0.23812 0.3466,-0.52916 z M 94.9268,192.99982 c -0.329108,-0.41964 -0.319749,-0.429 0.0999,-0.0999 0.440729,0.34564 0.580887,0.56291 0.363126,0.56291 -0.05494,0 -0.263302,-0.20836 -0.463021,-0.46302 z M 59.018992,182.87951 c 0,-0.3638 0.06005,-0.51263 0.133452,-0.33073 0.0734,0.1819 0.0734,0.47956 0,0.66146 -0.0734,0.1819 -0.133452,0.0331 -0.133452,-0.33073 z"
         id="path7" /><path
         style="display:inline;fill:#a3a3a3;fill-opacity:1"
         d="m 59.1058,219.65659 c 0,-20.00911 0.03142,-28.19466 0.06982,-18.1901 0.0384,10.00456 0.0384,26.37565 0,36.38021 -0.0384,10.00455 -0.06982,1.81901 -0.06982,-18.19011 z m 70.51516,18.12396 c 0.34178,-0.3638 0.68094,-0.66146 0.7537,-0.66146 0.0728,0 -0.14734,0.29766 -0.48911,0.66146 -0.34178,0.3638 -0.68094,0.66146 -0.7537,0.66146 -0.0728,0 0.14734,-0.29766 0.48911,-0.66146 z m 6.68131,-16.13958 c 0.003,-0.58209 0.0571,-0.78906 0.12041,-0.45994 0.0633,0.32912 0.0609,0.80537 -0.005,1.05834 -0.0662,0.25296 -0.11801,-0.0163 -0.11507,-0.5984 z M 98.366383,187.70816 c -0.329107,-0.41965 -0.319749,-0.42901 0.0999,-0.0999 0.440729,0.34564 0.580887,0.56292 0.363126,0.56292 -0.05494,0 -0.263302,-0.20836 -0.463021,-0.46302 z"
         id="path6" /><path
         style="display:inline;fill:#8c8c8c;fill-opacity:1"
         d="m 116.85482,271.85737 c 0.32742,-0.0631 0.8632,-0.0631 1.19062,0 0.32743,0.0631 0.0595,0.11466 -0.59531,0.11466 -0.65484,0 -0.92273,-0.0516 -0.59531,-0.11466 z m -22.910828,-2.45911 c 0,-0.3638 0.06005,-0.51263 0.133452,-0.33073 0.0734,0.1819 0.0734,0.47956 0,0.66146 -0.0734,0.1819 -0.133452,0.0331 -0.133452,-0.33073 z m 36.801448,0.33643 c 0.54571,-0.0571 1.43868,-0.0571 1.98438,0 0.5457,0.0571 0.0992,0.10378 -0.99219,0.10378 -1.0914,0 -1.53789,-0.0467 -0.99219,-0.10378 z m -13.35837,-3.43398 c 0.32912,-0.0633 0.80537,-0.0609 1.05833,0.005 0.25297,0.0662 -0.0163,0.11801 -0.59839,0.11507 -0.58209,-0.003 -0.78906,-0.0571 -0.45994,-0.12041 z m -20.608187,-17.4738 c -0.329107,-0.41965 -0.319749,-0.42901 0.0999,-0.0999 0.440729,0.34564 0.580887,0.56292 0.363126,0.56292 -0.05494,0 -0.263302,-0.20836 -0.463021,-0.46302 z M 74.2893,189.82482 c -0.329107,-0.41964 -0.319749,-0.429 0.0999,-0.0999 0.440729,0.34564 0.580887,0.56291 0.363126,0.56291 -0.05494,0 -0.263302,-0.20836 -0.463021,-0.46302 z"
         id="path5" /><path
         style="display:inline;fill:#1721e5;fill-opacity:1"
         d="m 128.76107,271.86886 c 0.1819,-0.0734 0.47956,-0.0734 0.66146,0 0.1819,0.0734 0.0331,0.13346 -0.33073,0.13346 -0.3638,0 -0.51263,-0.0601 -0.33073,-0.13346 z m -10.98021,-28.84673 c 0.25466,-0.0666 0.67138,-0.0666 0.92604,0 0.25466,0.0666 0.0463,0.121 -0.46302,0.121 -0.50932,0 -0.71768,-0.0545 -0.46302,-0.121 z m -0.38034,-6.34836 c 0.191,-0.0764 0.4192,-0.067 0.50712,0.0209 0.0879,0.0879 -0.0683,0.15045 -0.34727,0.13896 -0.30822,-0.0127 -0.37091,-0.0754 -0.15985,-0.15985 z m -3.7479,-1.2052 c 0.11709,-0.18945 0.0212,-0.2305 -0.27387,-0.11726 -0.26968,0.10349 -0.38839,0.068 -0.29237,-0.0873 0.0889,-0.14385 0.488,-0.26155 0.88687,-0.26155 0.39887,0 0.88556,-0.14883 1.08153,-0.33073 0.2442,-0.22667 0.30082,-0.23194 0.17995,-0.0168 -0.097,0.17269 -0.53319,0.49199 -0.96931,0.70955 -0.43612,0.21757 -0.71188,0.2644 -0.6128,0.10408 z m 1.84415,-0.38925 c 0.25685,-0.18781 0.56331,-0.34148 0.68101,-0.34148 0.11771,0 0.22157,-1.16086 0.23079,-2.57968 0.0128,-1.96724 0.0785,-2.42509 0.27673,-1.9285 0.14297,0.35815 0.23306,1.69989 0.20018,2.98164 l -0.0598,2.33045 -0.89797,-0.0605 c -0.80334,-0.0541 -0.84876,-0.0965 -0.43097,-0.40196 z m 2.21795,-0.0769 c 0,-0.49389 0.0705,-0.56445 0.3175,-0.3175 0.24694,0.24694 0.24694,0.38805 0,0.635 -0.24695,0.24694 -0.3175,0.17639 -0.3175,-0.3175 z m -5.42007,0.006 c -0.0965,-0.15619 -0.0774,-0.26694 0.0426,-0.2461 0.52734,0.0916 0.61365,-0.062 0.33126,-0.58969 -0.21832,-0.40793 -0.35876,-0.4736 -0.5054,-0.23633 -0.14433,0.23352 -0.25542,0.24386 -0.38405,0.0357 -0.0995,-0.16106 -0.0688,-0.29283 0.0684,-0.29283 0.13713,0 0.31161,-0.23813 0.38772,-0.52917 0.0919,-0.35138 0.008,-0.52916 -0.24934,-0.52916 -0.22865,0 -0.30923,0.12699 -0.19641,0.30954 0.13104,0.21203 0.0433,0.25276 -0.27843,0.12929 -0.37008,-0.14201 -0.43209,-0.0814 -0.29231,0.28577 0.14227,0.37367 0.1114,0.40048 -0.15575,0.13529 -0.26183,-0.25991 -0.26419,-0.39972 -0.011,-0.65292 0.41391,-0.41391 1.70946,-0.48101 1.9624,-0.10165 0.32623,0.4893 0.22617,0.68069 -0.26053,0.49829 -0.37061,-0.13889 -0.40521,-0.0976 -0.17337,0.20674 0.52013,0.68284 0.6117,1.26201 0.24734,1.5644 -0.25268,0.2097 -0.40909,0.21346 -0.5331,0.0128 z m -2.60023,-2.07129 c -0.39102,-0.40815 -0.70733,-0.85463 -0.70291,-0.99219 0.004,-0.13756 0.13081,-0.0392 0.28085,0.21848 0.15004,0.25772 0.38648,0.39832 0.52543,0.31245 0.13895,-0.0859 0.18414,-0.26698 0.10042,-0.40244 -0.24014,-0.38855 0.30972,-0.28686 0.64711,0.11967 0.2354,0.28364 0.20622,0.4034 -0.12969,0.5323 -0.35137,0.13483 -0.37156,0.24086 -0.10665,0.56007 0.55875,0.67325 0.13298,0.43192 -0.61456,-0.34834 z m 1.00543,-1.43604 c -0.14365,-0.32483 -0.55883,-0.7398 -0.92263,-0.92214 -0.61874,-0.31011 -0.62484,-0.33177 -0.0945,-0.33542 0.31185,-0.002 0.63554,0.17469 0.7193,0.39297 0.0838,0.21828 0.33463,0.39688 0.55748,0.39688 0.22879,0 0.40518,0.23036 0.40518,0.52916 0,0.70361 -0.34047,0.67215 -0.66487,-0.0615 z m -2.44088,-0.285 c -0.27682,-0.37263 -0.27155,-0.72115 0.0178,-1.17693 0.19839,-0.31249 -0.41745,-1.23303 -0.66158,-0.98891 -0.0596,0.0596 -0.12426,-0.10303 -0.14372,-0.36137 -0.026,-0.3447 0.15845,-0.46971 0.6929,-0.46971 0.62097,0 0.72218,0.10278 0.6868,0.69745 -0.0228,0.38359 -0.12014,0.8247 -0.21627,0.98025 -0.0961,0.15554 0.002,0.42993 0.21918,0.60976 0.21668,0.17983 0.39396,0.4187 0.39396,0.53084 0,0.36622 -0.74919,0.50152 -0.98908,0.17862 z m 0.24343,-0.76961 c -0.19163,-0.19163 -0.24736,-0.12388 -0.1823,0.22159 0.14318,0.76027 0.16535,0.78881 0.31714,0.4083 0.0776,-0.19463 0.017,-0.47808 -0.13484,-0.62989 z m 6.03732,0.19002 c 0,-0.21828 0.17859,-0.39687 0.39687,-0.39687 0.21828,0 0.39688,0.17859 0.39688,0.39687 0,0.21828 -0.1786,0.39688 -0.39688,0.39688 -0.21828,0 -0.39687,-0.1786 -0.39687,-0.39688 z m 2.84206,-1.22362 c -0.25345,-0.14183 -0.4646,-0.46032 -0.46923,-0.70775 -0.0115,-0.61729 -0.691,-1.46545 -1.01403,-1.26581 -0.14515,0.0897 -0.35006,0.0237 -0.45536,-0.14667 -0.12834,-0.20766 -0.0759,-0.23839 0.15897,-0.0932 0.25557,0.15795 0.30245,0.0974 0.17317,-0.2237 -0.36456,-0.90554 -0.44734,-1.34568 -0.145,-0.77101 0.17226,0.32742 0.41406,0.59531 0.53735,0.59531 0.31008,0 0.28182,-0.46229 -0.0404,-0.66146 -0.14553,-0.0899 -0.2638,-0.30532 -0.26284,-0.47863 9.5e-4,-0.17331 0.23745,0.0421 0.52553,0.47863 0.30466,0.46168 0.45719,1.00421 0.3646,1.2968 -0.1281,0.4048 -0.0644,0.46666 0.3263,0.31675 0.26701,-0.10247 0.40456,-0.10539 0.30566,-0.006 -0.0989,0.0989 0.003,0.53297 0.22602,0.96461 0.46776,0.90455 0.41535,1.06417 -0.23071,0.70262 z m -6.89657,-1.39634 c -0.14939,-0.38931 0.0216,-0.68733 0.39444,-0.68733 0.12126,0 0.22048,0.23812 0.22048,0.52917 0,0.60667 -0.40303,0.71033 -0.61492,0.15816 z m -4.6657,-1.98358 c -0.32499,-0.7846 -0.30668,-0.90696 0.21362,-1.42726 0.49459,-0.49458 0.56909,-0.50943 0.56909,-0.11341 0,0.25062 -0.11907,0.45567 -0.26459,0.45567 -0.40183,0 -0.31605,0.68624 0.13229,1.05833 0.21828,0.18116 0.39506,0.46363 0.39283,0.62771 -0.002,0.17492 -0.0986,0.14913 -0.23256,-0.0623 -0.18148,-0.28645 -0.25183,-0.29069 -0.34186,-0.0206 -0.0623,0.18703 -0.27331,-0.0461 -0.46882,-0.51811 z m -1.20167,-1.34958 c -0.0899,-0.14552 -0.0445,-0.26459 0.10106,-0.26459 0.14552,0 0.33817,0.11907 0.42811,0.26459 0.0899,0.14552 0.0445,0.26458 -0.10106,0.26458 -0.14553,0 -0.33817,-0.11906 -0.42811,-0.26458 z m 6.48229,0.0283 c 0,-0.12995 0.1786,-0.3048 0.39688,-0.38857 0.24175,-0.0928 0.39687,-4.2e-4 0.39687,0.23628 0,0.21371 -0.17859,0.38857 -0.39687,0.38857 -0.21828,0 -0.39688,-0.10632 -0.39688,-0.23628 z m 2.64584,-0.70538 c 0,-0.22687 -0.0938,-0.35451 -0.20846,-0.28365 -0.11465,0.0709 -0.23189,-0.15434 -0.26053,-0.50044 -0.0563,-0.68074 0.32724,-1.0989 0.60128,-0.6555 0.0929,0.15027 0.27832,0.20556 0.41212,0.12287 0.1338,-0.0827 0.17699,0.0224 0.096,0.2335 -0.081,0.21112 -0.0143,0.46603 0.14817,0.56646 0.21585,0.13341 0.21198,0.2832 -0.0144,0.55593 -0.40907,0.4929 -0.7742,0.47442 -0.7742,-0.0392 z m -0.0838,-1.22462 c -0.0845,-0.21106 -0.14715,-0.14837 -0.15985,0.15986 -0.0115,0.27891 0.0511,0.43518 0.13896,0.34726 0.0879,-0.0879 0.0973,-0.31612 0.0209,-0.50712 z m -8.51511,1.10795 c 0.0899,-0.14552 0.21602,-0.26459 0.2802,-0.26459 0.0642,0 0.11667,0.11907 0.11667,0.26459 0,0.14552 -0.12609,0.26458 -0.2802,0.26458 -0.15411,0 -0.20661,-0.11906 -0.11667,-0.26458 z m -1.27861,-0.63872 c 0.12298,-0.35006 0.0823,-0.44735 -0.13164,-0.31511 -0.17025,0.10522 -0.30954,0.0722 -0.30954,-0.0733 0,-0.14552 0.12717,-0.34318 0.28262,-0.43925 0.15544,-0.0961 0.21871,-0.34122 0.14059,-0.54478 -0.19703,-0.51345 0.2296,-0.46399 0.66887,0.0776 0.30996,0.38212 0.30812,0.4145 -0.0126,0.22118 -0.27691,-0.16694 -0.33386,-0.11749 -0.21661,0.18808 0.0875,0.22801 -0.0116,0.63449 -0.22027,0.9033 -0.36637,0.47201 -0.37326,0.47141 -0.20145,-0.0177 z m 7.90182,-0.40565 c -0.0947,-0.1532 -0.1014,-0.27855 -0.0149,-0.27855 0.0865,0 0.0392,-0.22062 -0.10517,-0.49028 -0.2287,-0.42733 -0.17714,-0.47398 0.40158,-0.36335 0.48843,0.0934 0.64277,0.26996 0.58381,0.66799 -0.0904,0.6104 -0.60448,0.88617 -0.86528,0.46419 z m -5.96175,-0.54313 c 0,-0.35278 0.17638,-0.52917 0.52916,-0.52917 0.62667,0 0.66392,0.16763 0.15119,0.68036 -0.51273,0.51273 -0.68035,0.47548 -0.68035,-0.15119 z m 7.27455,-0.79844 c -0.0945,-0.29784 -0.46182,-0.85438 -0.81619,-1.23676 -0.3867,-0.41725 -0.61169,-0.93878 -0.56273,-1.30438 0.0921,-0.68757 0.3542,-1.06694 0.38902,-0.56303 0.0944,1.3662 0.93843,2.72047 1.48977,2.39037 0.16245,-0.0973 0.14157,0.013 -0.0464,0.24509 -0.26934,0.33252 -0.2721,0.44516 -0.013,0.53152 0.23703,0.079 0.24542,0.16107 0.0301,0.29415 -0.17286,0.10684 -0.37103,-0.0435 -0.47052,-0.35696 z m -1.97884,-0.45833 c 0.002,-0.10914 0.11947,-0.37704 0.26054,-0.59532 0.2074,-0.32093 0.25725,-0.28295 0.26053,0.19844 0.002,0.32742 -0.11501,0.59531 -0.26053,0.59531 -0.14553,0 -0.26277,-0.0893 -0.26054,-0.19843 z m -9.39676,-0.59532 c 0.0899,-0.14552 0.008,-0.27213 -0.18282,-0.28135 -0.19049,-0.009 -0.0708,-0.12728 0.26597,-0.26235 0.36832,-0.14772 0.53653,-0.36818 0.42214,-0.55327 -0.11766,-0.19038 -0.0748,-0.23641 0.11235,-0.12073 0.21795,0.1347 0.18389,0.36802 -0.12184,0.83463 -0.39801,0.60743 -0.85057,0.9571 -0.4958,0.38307 z m -0.26725,-1.06265 c -0.0914,-0.14789 -0.25231,-0.21567 -0.35756,-0.15062 -0.10526,0.0651 -0.20937,-0.1206 -0.23137,-0.41256 -0.033,-0.43775 0.028,-0.47437 0.34801,-0.20883 0.31497,0.2614 0.35922,0.24701 0.23509,-0.0764 -0.0841,-0.21915 -0.46329,-0.53988 -0.84265,-0.71273 -0.641789,-0.29242 -0.659306,-0.34472 -0.25192,-0.7521 0.35004,-0.35004 0.50409,-0.37158 0.76824,-0.10743 0.25562,0.25562 0.25844,0.37489 0.0124,0.52692 -0.22429,0.13862 -0.15388,0.29898 0.23901,0.54435 0.47746,0.29817 0.53523,0.29116 0.40464,-0.0491 -0.16199,-0.42216 0.42601,-0.46771 0.79556,-0.0616 0.11335,0.12455 0.0573,0.14082 -0.12463,0.0361 -0.1819,-0.10468 -0.33073,-0.088 -0.33073,0.037 0,0.12501 0.14883,0.39418 0.33073,0.59817 0.27816,0.31194 0.26205,0.31928 -0.1014,0.0462 -0.35232,-0.26475 -0.46241,-0.24577 -0.59617,0.10279 -0.0902,0.23512 -0.0971,0.53582 -0.0153,0.66821 0.0818,0.13239 0.0892,0.2407 0.0165,0.2407 -0.0728,0 -0.20707,-0.121 -0.29848,-0.2689 z m 9.66238,-1.71256 c -0.17983,-0.21668 -0.44003,-0.32408 -0.57824,-0.23866 -0.1382,0.0854 -0.48471,-0.056 -0.77002,-0.31417 -0.38533,-0.34871 -0.43478,-0.52135 -0.19229,-0.67122 0.24663,-0.15242 0.21014,-0.33031 -0.14923,-0.7274 -0.26163,-0.2891 -0.43549,-0.72829 -0.38635,-0.97598 0.06,-0.30222 0.28395,-0.0694 0.68098,0.70792 0.3254,0.63704 0.59374,1.0392 0.5963,0.89368 0.003,-0.14552 0.24417,0.12826 0.53691,0.60841 0.31565,0.51771 0.65491,0.79719 0.83364,0.68672 0.18528,-0.1145 0.22866,-0.0686 0.11261,0.1192 -0.24212,0.39174 -0.29099,0.38542 -0.68431,-0.0885 z m -11.696264,-1.1509 c 0.189582,-0.12288 0.308645,-0.3911 0.264583,-0.59605 -0.04406,-0.20495 0.06872,-0.34286 0.250617,-0.30648 0.205784,0.0411 0.330734,-0.23372 0.330734,-0.72761 0,-0.77939 -0.339137,-1.0507 -0.661463,-0.52916 -0.08994,0.14552 -0.335089,0.26458 -0.544782,0.26458 -0.209693,0 -0.38126,-0.11906 -0.38126,-0.26458 0,-0.14552 0.193173,-0.26459 0.429272,-0.26459 0.335468,0 0.362901,-0.08 0.125539,-0.36597 -0.235937,-0.28429 -0.203597,-0.4044 0.144887,-0.53813 0.410628,-0.15757 0.873677,0.21217 0.883747,0.70567 0.002,0.10914 0.18265,0.19843 0.40093,0.19843 0.56064,0 0.49245,0.71329 -0.13229,1.38387 -0.590188,0.63349 -0.708095,1.13158 -0.19844,0.83829 0.1819,-0.10468 0.23837,-0.0888 0.12547,0.0353 -0.11289,0.12409 -0.470074,0.26258 -0.793745,0.30774 -0.39722,0.0554 -0.47646,0.01 -0.243799,-0.14131 z m 8.411014,-0.80936 c -0.45992,-0.5082 -0.56878,-1.34994 -0.17458,-1.34994 0.13571,0 0.31825,0.22527 0.40564,0.5006 0.0874,0.27533 0.39306,0.56184 0.67928,0.63668 0.28623,0.0748 0.52041,0.24097 0.52041,0.36914 0,0.42595 -1.00293,0.31626 -1.43075,-0.15648 z m -9.527209,-0.72591 c -0.139347,-0.36313 -0.100631,-0.3795 0.236276,-0.0999 0.459117,0.38103 0.506899,0.53419 0.166656,0.53419 -0.129952,0 -0.311271,-0.19543 -0.402932,-0.4343 z m 9.807459,-1.81519 c -0.29718,-0.72264 -0.60347,-1.11844 -0.78072,-1.0089 -0.20671,0.12776 -0.19914,0.21112 0.026,0.28617 0.43183,0.14395 0.39928,0.54719 -0.0831,1.0296 -0.35805,0.35804 -0.44469,0.29583 -0.81185,-0.58289 -0.29156,-0.69779 -0.32886,-1.06587 -0.12834,-1.26639 0.20052,-0.20052 0.28269,-0.0796 0.28269,0.41608 0,0.38431 0.11769,0.7715 0.26155,0.86041 0.14385,0.0889 0.19817,-0.004 0.12072,-0.20537 -0.0775,-0.20185 0.0835,-0.64408 0.35774,-0.98273 0.38305,-0.47304 0.54848,-0.53499 0.71391,-0.26731 0.14289,0.2312 0.11257,0.2849 -0.0901,0.15963 -0.168,-0.10384 -0.30546,-0.0627 -0.30546,0.0914 0,0.15411 0.12609,0.2802 0.2802,0.2802 0.15411,0 0.20661,0.11906 0.11667,0.26458 -0.0899,0.14552 -0.0304,0.26458 0.1323,0.26458 0.16269,0 0.20972,0.1393 0.1045,0.30955 -0.12374,0.20021 -0.0534,0.25663 0.19912,0.15972 0.3024,-0.11604 0.36507,0.023 0.27795,0.6165 -0.0619,0.42147 -0.12872,0.76587 -0.14858,0.76532 -0.0199,-5.4e-4 -0.25619,-0.53611 -0.52516,-1.19016 z m -10.313406,0.68313 c 0.170529,-0.19261 0.247087,-0.51429 0.17013,-0.71484 -0.07696,-0.20055 -0.08039,-0.36463 -0.0076,-0.36463 0.379827,0 0.36131,0.80085 -0.02526,1.09237 -0.368864,0.27817 -0.392928,0.27591 -0.13724,-0.0129 z m 4.981616,-0.81489 c -0.0899,-0.14552 -0.0374,-0.26458 0.11667,-0.26458 0.15411,0 0.2802,0.11906 0.2802,0.26458 0,0.14552 -0.0525,0.26458 -0.11667,0.26458 -0.0642,0 -0.19027,-0.11906 -0.2802,-0.26458 z m -5.13849,-0.74322 c -0.01177,-0.1951 -0.156065,-0.2628 -0.330434,-0.15503 -0.21203,0.13104 -0.252761,0.0433 -0.129291,-0.27843 0.133962,-0.3491 0.07756,-0.43033 -0.219621,-0.31629 -0.571679,0.21937 -0.494442,-0.0253 0.110124,-0.34886 0.722089,-0.38645 1.203089,-0.11916 1.250474,0.69489 0.02522,0.43328 -0.03802,0.57155 -0.16641,0.36381 -0.164198,-0.26568 -0.236798,-0.26038 -0.350522,0.0256 -0.112242,0.28224 -0.147974,0.28535 -0.16432,0.0143 z m 7.96953,-1.69095 c -0.49909,-0.49908 -0.3707,-0.86918 0.14552,-0.41949 0.25466,0.22185 0.64161,0.46903 0.8599,0.54929 0.27911,0.10263 0.23593,0.15213 -0.14553,0.16682 -0.29831,0.0115 -0.68527,-0.12199 -0.85989,-0.29662 z m -8.927759,-0.45796 c 0.08372,-0.13547 0.03122,-0.32109 -0.116676,-0.41249 -0.147895,-0.0914 -0.277268,-0.0103 -0.287496,0.18015 -0.01023,0.19049 -0.120922,0.10822 -0.245987,-0.18282 -0.312558,-0.72736 -0.312558,-1.14511 0,-0.66146 0.291436,0.45097 0.344424,0.25134 0.101393,-0.38199 -0.134572,-0.35069 -0.234543,-0.36608 -0.570053,-0.0878 -0.341328,0.28312 -0.335256,0.19897 0.03769,-0.52242 0.494338,-0.95619 0.823026,-1.14918 0.563258,-0.33073 -0.09635,0.30356 -0.04755,0.52917 0.114462,0.52917 0.155327,0 0.282413,0.17859 0.282413,0.39687 0,0.3879 0.300215,0.50907 1.017709,0.41077 0.254661,-0.0349 0.216937,0.14242 -0.132292,0.62179 -0.451109,0.61922 -1.109226,0.99884 -0.764425,0.44094 z m 9.516999,-0.22078 c -0.46346,-0.31734 -0.64342,-1.08949 -0.29987,-1.28666 0.17554,-0.10075 0.22946,-0.0843 0.1198,0.0366 -0.10965,0.12086 -0.0176,0.49713 0.20454,0.83617 0.43023,0.65662 0.42633,0.72263 -0.0245,0.41394 z m -1.30549,-0.58823 c 0.0927,-0.14998 -0.0135,-0.19433 -0.24897,-0.10398 -0.26813,0.10289 -0.41061,0.007 -0.41061,-0.27592 0,-0.23842 0.17791,-0.50175 0.39535,-0.5852 0.21745,-0.0834 0.34175,-0.23845 0.27622,-0.34447 -0.0655,-0.10602 0.0542,-0.19276 0.26611,-0.19276 0.21188,0 0.38361,0.12898 0.38162,0.28663 -0.008,0.62811 -0.33673,1.47726 -0.57203,1.47726 -0.13714,0 -0.1766,-0.1177 -0.0877,-0.26156 z m -9.843243,-1.85548 c 0.07616,-0.29124 0.04401,-0.47114 -0.07145,-0.39978 -0.343074,0.21203 -0.918086,-0.64498 -0.627631,-0.93544 0.163384,-0.16338 0.464095,-0.0599 0.837984,0.28846 0.466131,0.43427 0.527684,0.64694 0.306731,1.05979 -0.359361,0.67148 -0.622618,0.66378 -0.44563,-0.013 z m -1.327419,-0.31272 c 0.01064,-0.1916 -0.07631,-0.73842 -0.193202,-1.21516 -0.175755,-0.71677 -0.309614,-0.84051 -0.773402,-0.71497 -0.511966,0.13859 -0.518837,0.12558 -0.07882,-0.14919 0.379394,-0.23691 0.583949,-0.20878 0.960602,0.13208 0.456372,0.41301 0.603984,1.7571 0.233641,2.12745 -0.09249,0.0925 -0.159459,0.0114 -0.148822,-0.18021 z m 4.161077,0.0641 c 0,-0.13693 0.119063,-0.32255 0.264584,-0.41249 0.14552,-0.0899 0.264583,0.0221 0.264583,0.24897 0,0.22687 -0.119063,0.41249 -0.264583,0.41249 -0.145521,0 -0.264584,-0.11204 -0.264584,-0.24897 z m 6.142435,-0.63297 c 0.0281,-0.33955 0.18506,-0.61737 0.3488,-0.61737 0.1692,0 0.24675,0.26647 0.17968,0.61737 -0.0649,0.33954 -0.22187,0.61736 -0.3488,0.61736 -0.12692,0 -0.20778,-0.27782 -0.17968,-0.61736 z m -1.28494,-0.44098 c 0.0275,-0.50932 0.14256,-1.0735 0.25579,-1.25374 0.14119,-0.22474 0.0769,-0.27819 -0.20475,-0.17013 -0.57497,0.22064 -0.51379,-0.23649 0.0814,-0.60819 0.44326,-0.27682 0.48295,-0.22935 0.40049,0.4789 -0.0663,0.56977 -10e-4,0.7321 0.23558,0.58972 0.25733,-0.15455 0.25883,-0.11203 0.007,0.1993 -0.17603,0.21768 -0.43378,0.68702 -0.57277,1.04298 -0.23052,0.59036 -0.24834,0.56588 -0.2028,-0.27884 z m 0.43417,0.5604 c 0,-0.14552 0.11906,-0.33817 0.26459,-0.42811 0.14552,-0.0899 0.26458,-0.0445 0.26458,0.10107 0,0.14552 -0.11906,0.33816 -0.26458,0.4281 -0.14553,0.0899 -0.26459,0.0445 -0.26459,-0.10106 z m -6.479622,-1.62305 c 0.0914,-0.14789 0.277024,-0.20039 0.41249,-0.11667 0.366988,0.22681 0.298558,0.38557 -0.166189,0.38557 -0.22687,0 -0.337705,-0.121 -0.246301,-0.2689 z m 32.904212,-1.25245 c -0.32911,-0.41964 -0.31975,-0.429 0.0999,-0.0999 0.44073,0.34565 0.58089,0.56292 0.36313,0.56292 -0.0549,0 -0.2633,-0.20836 -0.46302,-0.46302 z m -37.952862,-0.33073 c 0,-0.26967 0.113783,-0.41999 0.25285,-0.33405 0.143445,0.0887 0.180417,-0.0325 0.08545,-0.27997 -0.106918,-0.27862 0.01395,-0.5333 0.334518,-0.70486 0.788557,-0.42202 0.820883,-0.33207 0.236568,0.65827 -0.6662,1.12912 -0.909384,1.30578 -0.909384,0.66061 z m 8.892752,-0.84364 c -0.856233,-0.91905 -0.662376,-2.34842 0.20136,-1.48469 0.3823,0.3823 0.42406,0.83792 0.0559,0.61041 -0.15089,-0.0933 -0.19379,0.0149 -0.10139,0.25572 0.1238,0.32263 0.24324,0.34842 0.52614,0.11364 0.27645,-0.22944 0.36597,-0.22727 0.36597,0.009 0,0.17193 0.11084,0.2441 0.2463,0.16037 0.13547,-0.0837 0.31724,-0.0374 0.40395,0.10285 0.0887,0.14358 -0.087,0.20795 -0.40215,0.14726 -0.46499,-0.0895 -0.5055,-0.0424 -0.23925,0.27842 0.54248,0.65365 -0.43429,0.47542 -1.05687,-0.19284 z m -9.466317,-0.62512 c -0.180334,-0.19519 -0.256893,-0.53988 -0.17013,-0.76598 0.189812,-0.49464 -0.180369,-0.53757 -0.693083,-0.0804 -0.311673,0.27792 -0.319332,0.26208 -0.04797,-0.0992 0.177605,-0.23647 0.618347,-0.42995 0.979427,-0.42995 0.669893,0 0.86808,0.30103 0.391926,0.59531 -0.14552,0.0899 -0.264583,0.28259 -0.264583,0.42811 0,0.14552 0.119063,0.191 0.264583,0.10106 0.145521,-0.0899 0.264584,-0.0445 0.264584,0.10106 0,0.44579 -0.37899,0.52421 -0.724756,0.14997 z m 7.339339,-0.11874 c 0,-0.29104 0.119062,-0.52917 0.264583,-0.52917 0.145521,0 0.264584,0.23813 0.264584,0.52917 0,0.29104 -0.119063,0.52917 -0.264584,0.52917 -0.145521,0 -0.264583,-0.23813 -0.264583,-0.52917 z m -4.233333,-1.71979 c 0,-0.21828 0.178593,-0.39688 0.396875,-0.39688 0.218281,0 0.396875,0.1786 0.396875,0.39688 0,0.21828 -0.178594,0.39687 -0.396875,0.39687 -0.218282,0 -0.396875,-0.17859 -0.396875,-0.39687 z m 3.96875,0.19607 c 0,-0.0619 0.238125,-0.41533 0.529166,-0.78533 0.534965,-0.6801 0.714411,-1.27625 0.308681,-1.0255 -0.121268,0.075 -0.220486,-0.0352 -0.220486,-0.24476 0,-0.26192 0.09721,-0.30036 0.310976,-0.12295 0.171037,0.14195 0.37742,0.19164 0.45863,0.11043 0.08121,-0.0812 -0.04073,0.37623 -0.270985,1.01653 -0.230251,0.64031 -0.575541,1.16419 -0.76731,1.16419 -0.19177,0 -0.348672,-0.0507 -0.348672,-0.11261 z m 1.892571,-0.29325 c -0.313312,-0.27173 -0.569655,-0.58784 -0.569655,-0.70247 0,-0.11462 0.218022,-0.0111 0.484492,0.23005 0.266473,0.24115 0.544283,0.37867 0.617363,0.30559 0.0731,-0.0731 0.13287,0.0457 0.13287,0.26401 0,0.49412 0.0201,0.49705 -0.66507,-0.0972 z m -10.888405,-0.80038 c 0,-0.17836 -0.137458,-0.23934 -0.305463,-0.13551 -0.190775,0.11791 -0.233581,0.0725 -0.11401,-0.12099 0.1053,-0.17038 0.30229,-0.24128 0.437756,-0.15756 0.135465,0.0837 0.246301,0.0261 0.246301,-0.12798 0,-0.1541 -0.164708,-0.28019 -0.366017,-0.28019 -0.428958,0 -0.802305,-1.14841 -0.416257,-1.2804 0.144406,-0.0494 0.427257,-0.25447 0.628557,-0.45577 0.311613,-0.31161 0.344244,-0.20379 0.219589,0.72559 -0.111754,0.83319 -0.068,1.04312 0.184838,0.88686 0.264576,-0.16352 0.265468,-0.0785 0.0044,0.42252 -0.428382,0.82216 -0.519725,0.91415 -0.519725,0.52343 z m -0.08384,-1.66559 c -0.08446,-0.21107 -0.147157,-0.14837 -0.159853,0.15985 -0.01149,0.27891 0.05105,0.43518 0.138965,0.34727 0.08792,-0.0879 0.09732,-0.31613 0.02089,-0.50712 z m 7.359884,0.57877 c -0.08994,-0.14552 -0.03743,-0.26458 0.116677,-0.26458 0.154109,0 0.280198,0.11906 0.280198,0.26458 0,0.14552 -0.0525,0.26459 -0.116677,0.26459 -0.06417,0 -0.190261,-0.11907 -0.280198,-0.26459 z m 0.661458,-0.52916 c 0,-0.14552 0.12609,-0.26459 0.280199,-0.26459 0.154109,0 0.206613,0.11907 0.116676,0.26459 -0.08994,0.14552 -0.216026,0.26458 -0.280198,0.26458 -0.06417,0 -0.116677,-0.11906 -0.116677,-0.26458 z m -0.619676,-0.67494 c 0.08092,-0.21087 0.253449,-0.3834 0.3834,-0.3834 0.380372,0 0.271376,0.45909 -0.147124,0.61968 -0.256255,0.0983 -0.33461,0.02 -0.236276,-0.23628 z m -1.232407,-0.21137 c 0,-0.0611 0.312316,-0.3158 0.694035,-0.56592 0.381719,-0.25011 0.613213,-0.32397 0.514431,-0.16414 -0.188769,0.30543 -1.208466,0.92146 -1.208466,0.73006 z m -7.999455,-0.45339 c 0.170169,-0.22752 0.246935,-0.75813 0.170591,-1.17914 -0.137383,-0.75762 -0.133218,-0.76042 0.405445,-0.27294 0.62011,0.56119 0.755632,1.60659 0.179618,1.38555 -0.200549,-0.077 -0.522228,-4e-4 -0.714844,0.17013 -0.28465,0.25201 -0.29229,0.23262 -0.04081,-0.1036 z m 9.34351,-0.84312 c -0.327178,-0.52537 -0.324024,-0.55672 0.02684,-0.26687 0.218669,0.18063 0.482215,0.24379 0.585657,0.14035 0.103443,-0.10344 0.109515,0.0166 0.01349,0.26688 -0.216624,0.56452 -0.182231,0.57223 -0.625996,-0.14036 z m -2.402388,-0.0505 c 0,-0.22687 0.119062,-0.41249 0.264583,-0.41249 0.145521,0 0.264583,0.11204 0.264583,0.24897 0,0.13693 -0.119062,0.32255 -0.264583,0.41249 -0.145521,0.0899 -0.264583,-0.0221 -0.264583,-0.24897 z m -7.408334,-1.33524 c 0,-0.42587 -0.109595,-0.62824 -0.282391,-0.52145 -0.155497,0.0961 -0.347703,-0.0752 -0.427734,-0.38126 -0.07994,-0.30568 -0.280284,-0.55906 -0.445212,-0.56307 -0.164929,-0.004 -0.597527,-0.40906 -0.961329,-0.90012 -0.363802,-0.49106 -0.740303,-0.84441 -0.83667,-0.78521 -0.238881,0.14675 -0.111643,-0.62227 0.145505,-0.87942 0.113352,-0.11335 0.182074,-0.087 0.152715,0.0585 -0.13097,0.64916 0.04133,0.73345 0.413399,0.20225 0.375828,-0.53657 1.366222,-0.57985 1.035831,-0.0453 -0.07948,0.1286 0.02822,0.16754 0.23934,0.0865 0.496263,-0.19044 0.849556,0.37618 0.470747,0.75499 -0.211534,0.21153 -0.472434,0.12044 -0.955905,-0.33376 -0.673305,-0.63254 -0.94321,-0.42116 -0.334233,0.26176 0.281361,0.31552 0.261613,0.31859 -0.132292,0.0205 -0.254661,-0.1927 -0.46302,-0.23518 -0.46302,-0.0944 0,0.354 0.99711,1.22401 1.484868,1.2956 0.220631,0.0324 0.61396,0.30425 0.874063,0.60415 0.260103,0.2999 0.530281,0.48791 0.600395,0.4178 0.07011,-0.0701 0.127479,0.0795 0.127479,0.33239 0,0.25293 -0.15875,0.61862 -0.352778,0.81265 -0.293981,0.29398 -0.352778,0.23678 -0.352778,-0.34319 z m 8.068324,0.12738 c -0.74431,-0.82245 -0.205393,-0.98696 0.598785,-0.18278 0.522694,0.52269 0.602294,0.71357 0.297573,0.71357 -0.228801,0 -0.632161,-0.23885 -0.896358,-0.53079 z m -4.893324,-2.37963 c 0,-0.14552 0.12609,-0.26458 0.280199,-0.26458 0.154109,0 0.206613,0.11906 0.116676,0.26458 -0.08994,0.14552 -0.216026,0.26459 -0.280198,0.26459 -0.06417,0 -0.116677,-0.11907 -0.116677,-0.26459 z m 1.231072,-0.92622 c -0.875261,-0.92657 -1.195367,-1.12031 -1.442555,-0.87313 -0.247189,0.24719 -0.317683,0.24611 -0.317683,-0.005 0,-0.20976 -0.254434,-0.2731 -0.727604,-0.18115 -0.497615,0.0967 -0.575791,0.0744 -0.247322,-0.0706 0.449978,-0.19864 0.442973,-0.24481 -0.11101,-0.73167 -0.527919,-0.46395 -0.572944,-0.46937 -0.420091,-0.0505 0.144217,0.3952 0.09106,0.42626 -0.337276,0.19702 -0.794255,-0.42507 -0.92718,-0.84669 -0.39063,-1.23903 0.623227,-0.45571 1.040741,-0.32353 1.042186,0.32996 8.79e-4,0.39774 0.201403,0.51389 0.927163,0.53708 1.486405,0.0475 1.62867,0.0866 1.437751,0.39554 -0.12992,0.21021 -0.235908,0.20395 -0.37567,-0.0222 -0.142258,-0.23017 -0.235385,-0.20896 -0.345799,0.0788 -0.111614,0.29086 0.01515,0.37554 0.484974,0.32396 0.349847,-0.0384 0.572844,0.0325 0.49555,0.15757 -0.0773,0.12506 -0.0074,0.22739 0.155278,0.22739 0.162697,0 0.235354,0.0978 0.16146,0.21739 -0.174866,0.28294 0.807786,1.12362 1.214066,1.03866 0.172061,-0.036 0.358405,0.14293 0.414098,0.3976 0.173016,0.79113 -0.444731,0.51307 -1.616886,-0.72779 z m -1.495655,-1.71961 c 0,-0.14552 -0.119062,-0.26458 -0.264583,-0.26458 -0.145521,0 -0.264584,0.11906 -0.264584,0.26458 0,0.14552 0.119063,0.26458 0.264584,0.26458 0.145521,0 0.264583,-0.11906 0.264583,-0.26458 z m -6.826085,-0.27791 c -0.392427,-0.62837 -0.407365,-1.04501 -0.03747,-1.04501 0.154109,0 0.221497,0.095 0.14975,0.21107 -0.07175,0.11609 -0.02106,0.38398 0.112625,0.59532 0.186381,0.29462 0.244019,0.23305 0.247126,-0.26399 0.003,-0.47698 0.08204,-0.57024 0.299255,-0.35303 0.217215,0.21722 0.196289,0.43643 -0.07921,0.82976 -0.367601,0.52482 -0.380193,0.52529 -0.692079,0.0259 z m -0.88058,-0.18511 c -0.329108,-0.41964 -0.31975,-0.429 0.09989,-0.0999 0.254662,0.19972 0.463021,0.40808 0.463021,0.46303 0,0.21776 -0.217272,0.0776 -0.562915,-0.36313 z m 2.679582,-0.99219 c 0,-0.22048 -0.235185,-0.39687 -0.529167,-0.39687 -0.291041,0 -0.529166,-0.11907 -0.529166,-0.26459 0,-0.14552 0.238125,-0.26458 0.529166,-0.26458 0.291042,0 0.529167,0.10518 0.529167,0.23372 0,0.12855 0.26789,0.30714 0.595312,0.39687 0.496608,0.1361 0.52951,0.20634 0.198438,0.42369 -0.560649,0.36805 -0.79375,0.33039 -0.79375,-0.12824 z m -3.200327,-0.55968 c -0.306878,-0.36977 -0.287446,-0.41436 0.144116,-0.33073 0.27435,0.0532 0.548373,0.24549 0.608939,0.42739 0.157152,0.47199 -0.333373,0.40902 -0.753055,-0.0967 z m 4.618046,0.22291 c -0.202437,-0.12893 -0.095,-0.34794 0.325714,-0.66398 0.555043,-0.41695 0.6084,-0.42108 0.460485,-0.0356 -0.137295,0.35779 -0.05335,0.40144 0.468037,0.24342 0.423558,-0.12838 0.547142,-0.10437 0.370753,0.072 -0.39354,0.39354 -1.280902,0.60332 -1.624989,0.38416 z m -0.359386,-0.68916 c 0,-0.0549 0.20836,-0.26331 0.463021,-0.46303 0.419644,-0.3291 0.429002,-0.31974 0.0999,0.0999 -0.345644,0.44073 -0.562916,0.58089 -0.562916,0.36313 z M 79.73618,186.3012 c -0.284763,-0.46076 0.03956,-0.55833 0.402448,-0.12108 0.20869,0.25145 0.228761,0.40327 0.05332,0.40327 -0.154751,0 -0.359846,-0.12699 -0.455766,-0.28219 z m 1.201504,0.0176 c 0,-0.14552 0.126089,-0.26458 0.280198,-0.26458 0.154109,0 0.206614,0.11906 0.116677,0.26458 -0.08994,0.14552 -0.216026,0.26459 -0.280198,0.26459 -0.06417,0 -0.116677,-0.11907 -0.116677,-0.26459 z m -0.79375,-0.46846 c 0,-0.14327 0.178594,-0.40871 0.396875,-0.58987 0.538475,-0.44689 0.501288,-1.05362 -0.06615,-1.07922 -0.275784,-0.0124 -0.32948,-0.0748 -0.132785,-0.15418 0.18163,-0.0733 0.745006,0.12306 1.251946,0.43636 0.50694,0.31331 1.035786,0.49915 1.175212,0.41298 0.139426,-0.0862 0.629867,0.0722 1.089868,0.35195 0.80321,0.48846 0.810091,0.50705 0.173587,0.4688 -0.364528,-0.0219 -0.61273,-0.12088 -0.55156,-0.21997 0.247713,-0.40125 -0.459576,-0.4861 -0.844384,-0.1013 -0.227559,0.22756 -0.693158,0.41375 -1.034664,0.41375 -0.341506,0 -0.809251,0.0723 -1.039434,0.1606 -0.230183,0.0883 -0.418515,0.0434 -0.418515,-0.0999 z m 1.967241,-0.56215 c 0.08051,-0.13027 -0.01168,-0.29751 -0.204872,-0.37165 -0.193192,-0.0741 -0.351258,0.0325 -0.351258,0.23686 0,0.41661 0.332197,0.49712 0.55613,0.13479 z m -3.32485,-0.64738 c 0.162077,-0.19529 0.206421,-0.4525 0.09854,-0.57158 -0.107878,-0.11908 -0.05251,-0.13408 0.123032,-0.0333 0.359889,0.20655 0.165574,0.95999 -0.247587,0.95999 -0.168919,0 -0.159261,-0.13184 0.02601,-0.35508 z m -1.403058,-0.41043 c -0.09954,-0.16105 -0.04786,-0.29283 0.114834,-0.29283 0.162697,0 0.225362,-0.11399 0.139256,-0.25331 -0.08611,-0.13933 0.234288,-0.45538 0.711989,-0.70235 0.735509,-0.38025 0.816196,-0.38591 0.526774,-0.037 -0.279307,0.33672 -0.279307,0.43899 0,0.55955 0.187975,0.0811 -0.0034,0.0754 -0.425295,-0.0129 -0.453138,-0.0947 -0.70392,-0.0582 -0.61277,0.0893 0.08486,0.13731 0.05797,0.40551 -0.05976,0.596 -0.150311,0.24321 -0.267945,0.25914 -0.395032,0.0535 z m -0.609596,-1.16224 c 0.03597,-0.18346 -0.163963,-0.29002 -0.466195,-0.24848 -0.50415,0.0693 -0.505957,0.0586 -0.03822,-0.22721 0.381908,-0.23333 0.577442,-0.21345 0.880412,0.0895 0.342902,0.34291 0.339943,0.40848 -0.02475,0.54842 -0.247363,0.0949 -0.388851,0.0296 -0.351245,-0.16225 z m 2.973388,0.0757 c 0.08994,-0.14552 0.216026,-0.26458 0.280198,-0.26458 0.06417,0 0.116677,0.11906 0.116677,0.26458 0,0.14552 -0.126089,0.26459 -0.280198,0.26459 -0.154109,0 -0.206614,-0.11907 -0.116677,-0.26459 z"
         id="path4" /><path
         style="display:inline;fill:#1521e5;fill-opacity:1;stroke:#1721e5;stroke-opacity:1;paint-order:normal"
         d="m 130.74544,271.84961 c 0.69123,-0.0545 1.82232,-0.0545 2.51355,0 0.69122,0.0545 0.12567,0.0991 -1.25678,0.0991 -1.38244,0 -1.94799,-0.0446 -1.25677,-0.0991 z m -35.979691,-1.58288 c 0.402183,-0.0608 0.997496,-0.0592 1.322917,0.004 0.325421,0.0628 -0.0036,0.11257 -0.731242,0.11058 -0.727604,-0.002 -0.993858,-0.0534 -0.591675,-0.11419 z m -0.135929,-1.58436 c 0.327421,-0.0631 0.863203,-0.0631 1.190625,0 0.327421,0.0631 0.05953,0.11466 -0.595313,0.11466 -0.654844,0 -0.922734,-0.0516 -0.595312,-0.11466 z m 2.253993,0.003 c 0.257431,-0.0671 0.614619,-0.0627 0.79375,0.01 0.179132,0.0725 -0.03149,0.12737 -0.468056,0.12197 -0.436563,-0.005 -0.583125,-0.0647 -0.325694,-0.13177 z m -8.008681,-2.29779 c 0,-0.0549 0.208359,-0.2633 0.463021,-0.46302 0.419644,-0.32911 0.429002,-0.31975 0.09989,0.0999 -0.345644,0.44073 -0.562916,0.58089 -0.562916,0.36313 z m 42.134898,-0.0928 c 0.5457,-0.0571 1.43867,-0.0571 1.98437,0 0.54571,0.0571 0.0992,0.10379 -0.99219,0.10379 -1.0914,0 -1.53789,-0.0467 -0.99218,-0.10379 z m -14.09362,-29.30376 c -0.65735,-0.17334 -1.78649,-0.61005 -2.50921,-0.97046 -1.06154,-0.52938 -1.32484,-0.79608 -1.37034,-1.38801 -0.031,-0.40299 -0.21152,-0.92372 -0.40121,-1.15716 -0.2956,-0.36378 -0.27871,-0.39964 0.11813,-0.25092 0.4867,0.1824 0.58676,-0.009 0.26053,-0.49829 -0.25294,-0.37936 -1.54849,-0.31226 -1.9624,0.10165 -0.25321,0.2532 -0.25085,0.39301 0.011,0.65292 0.26715,0.26519 0.29802,0.23838 0.15575,-0.13529 -0.13978,-0.36715 -0.0778,-0.42778 0.29231,-0.28577 0.32176,0.12347 0.40947,0.0827 0.27843,-0.12929 -0.11282,-0.18255 -0.0322,-0.30954 0.19641,-0.30954 0.25746,0 0.34123,0.17778 0.24934,0.52916 -0.0761,0.29104 -0.25059,0.52917 -0.38772,0.52917 -0.13714,0 -0.17576,0.11906 -0.0858,0.26458 0.0899,0.14552 -0.0121,0.26459 -0.22683,0.26459 -0.42635,0 -3.7971,-3.60758 -4.34897,-4.65452 -0.18836,-0.35734 -0.2688,-0.76889 -0.17877,-0.91456 0.09,-0.14568 0.0204,-0.23215 -0.15469,-0.19217 -0.17511,0.04 -0.65673,-0.49284 -1.07027,-1.18407 -0.41354,-0.69122 -0.66607,-1.25859 -0.56118,-1.26082 0.10489,-0.002 0.0581,-0.0915 -0.10408,-0.19844 -0.41772,-0.27544 -2.74792,-4.08038 -2.74792,-4.48702 0,-0.18566 -0.10632,-0.33757 -0.23627,-0.33757 -0.12996,0 -0.30719,-0.18478 -0.39385,-0.41062 -0.0867,-0.22584 -0.0637,-0.3526 0.051,-0.28169 0.11473,0.0709 0.34905,-0.096 0.52072,-0.37087 0.20367,-0.32613 0.21979,-0.55685 0.0464,-0.66401 -0.14615,-0.0903 -0.23301,-0.007 -0.19302,0.18617 0.10104,0.48699 -0.91087,0.44315 -1.07276,-0.0465 -0.11664,-0.35278 -0.0767,-0.35278 0.35947,0 0.26988,0.21828 0.40792,0.25879 0.30675,0.09 -0.10116,-0.16877 -0.11011,-0.49923 -0.0199,-0.73435 0.13376,-0.34856 0.24385,-0.36754 0.59617,-0.10279 0.36345,0.27312 0.37956,0.26578 0.1014,-0.0462 -0.1819,-0.20399 -0.33073,-0.47316 -0.33073,-0.59817 0,-0.125 0.14883,-0.14163 0.33073,-0.037 0.1819,0.10468 0.23798,0.0884 0.12463,-0.0361 -0.36955,-0.40608 -0.95755,-0.36053 -0.79556,0.0616 0.13059,0.3403 0.0728,0.34731 -0.40464,0.0491 -0.39289,-0.24537 -0.4633,-0.40573 -0.23901,-0.54435 0.24035,-0.14854 0.2434,-0.27108 0.0125,-0.50198 -0.31876,-0.31876 -0.98239,-0.0951 -0.7644,0.25762 0.0687,0.11121 -0.0484,0.2022 -0.26027,0.2022 -0.211875,0 -0.385231,-0.0992 -0.385231,-0.22048 0,-0.12127 0,-0.30979 0,-0.41893 0,-0.10914 0.10914,-0.19844 0.242534,-0.19844 0.133397,0 0.341757,-0.10838 0.463017,-0.24085 0.12811,-0.13994 0.0819,-0.16111 -0.11024,-0.0505 -0.509655,0.29329 -0.391748,-0.2048 0.19844,-0.83829 0.62474,-0.67058 0.69293,-1.38387 0.13229,-1.38387 -0.21828,0 -0.3987,-0.0893 -0.40093,-0.19843 -0.0101,-0.4935 -0.473119,-0.86324 -0.883747,-0.70567 -0.348484,0.13373 -0.380824,0.25384 -0.144887,0.53813 0.237362,0.286 0.209929,0.36597 -0.125539,0.36597 -0.236099,0 -0.429272,0.11907 -0.429272,0.26459 0,0.14552 0.171567,0.26458 0.38126,0.26458 0.209693,0 0.454845,-0.11906 0.544782,-0.26458 0.322326,-0.52154 0.661463,-0.25023 0.661463,0.52916 0,0.49389 -0.12495,0.76876 -0.330734,0.72761 -0.184804,-0.037 -0.296427,0.13815 -0.252985,0.39687 0.04276,0.25466 -0.0338,0.46302 -0.17013,0.46302 -0.232584,0 -0.700511,-0.87364 -0.520005,-0.97087 0.04577,-0.0246 -0.202142,-0.34859 -0.550922,-0.71985 -0.476629,-0.50734 -0.562539,-0.7613 -0.345864,-1.02237 0.200478,-0.24157 0.204705,-0.46554 0.01387,-0.73536 -0.22578,-0.31925 -0.248013,-0.30595 -0.125461,0.075 0.268749,0.83544 -0.277205,0.48499 -1.030478,-0.66146 -0.406358,-0.61847 -0.963782,-1.45445 -1.23872,-1.85775 -0.274938,-0.4033 -0.427879,-0.84979 -0.339869,-0.99219 0.08801,-0.1424 0.04569,-0.25892 -0.09405,-0.25892 -0.485283,0 -1.286312,-1.74024 -1.224497,-2.66022 0.07181,-1.06871 -0.539805,-1.91446 -1.22678,-1.69643 -0.303542,0.0963 -0.569867,-0.0404 -0.755919,-0.388 -0.232007,-0.43351 -0.158133,-0.74129 0.38408,-1.60021 0.369236,-0.58491 0.580548,-1.06165 0.469582,-1.05942 -0.44878,0.009 -0.991019,0.53001 -0.993193,0.95428 -0.0043,0.83407 -0.526678,0.63315 -1.138413,-0.43784 -0.585881,-1.02573 -0.589596,-1.57882 -0.0106,-1.57882 0.152502,0 0.205348,0.18744 0.117437,0.41653 -0.167701,0.43702 0.450356,1.26481 0.733184,0.98198 0.267561,-0.26756 0.18603,-0.64974 -0.100794,-0.47247 -0.14552,0.0899 -0.264583,0.0445 -0.264583,-0.10106 0,-0.14552 0.119063,-0.33817 0.264583,-0.42811 0.59146,-0.36554 0.204145,-0.64904 -0.727604,-0.53258 -0.88797,0.11098 -1.040942,0.0388 -1.456346,-0.68732 -0.255287,-0.44623 -0.397089,-0.91984 -0.315114,-1.05248 0.08197,-0.13264 -0.03658,-0.24116 -0.263446,-0.24116 -0.226869,0 -0.41249,-0.12388 -0.41249,-0.2753 0,-0.15141 -0.252147,-0.61634 -0.560327,-1.03318 -0.586082,-0.79272 -0.493448,-1.42053 0.171926,-1.1652 0.597567,0.22931 0.482508,-0.79872 -0.153849,-1.37462 -0.537106,-0.48607 -0.540863,-0.48285 -0.395953,0.33968 0.08046,0.45673 0.03443,0.89955 -0.102296,0.98406 -0.230189,0.14226 -0.509894,-0.25524 -1.388572,-1.97336 -0.186056,-0.3638 -0.405974,-0.72099 -0.488707,-0.79375 -0.4794,-0.42161 -1.306774,-1.85208 -1.07123,-1.85208 0.154197,0 0.429069,0.23812 0.610828,0.52917 0.181758,0.29104 0.466537,0.52916 0.632841,0.52916 0.166305,0 0.367776,0.25011 0.447714,0.55579 0.08003,0.30604 0.272237,0.47736 0.427734,0.38126 0.172796,-0.10679 0.282391,0.0956 0.282391,0.52145 0,0.57997 0.0588,0.63717 0.352778,0.34319 0.194028,-0.19403 0.352778,-0.55972 0.352778,-0.81265 0,-0.25293 -0.05737,-0.4025 -0.127479,-0.33239 -0.07011,0.0701 -0.340292,-0.1179 -0.600395,-0.4178 -0.260103,-0.2999 -0.653432,-0.57177 -0.874063,-0.60415 -0.487758,-0.0716 -1.484868,-0.9416 -1.484868,-1.2956 0,-0.14079 0.208359,-0.0983 0.46302,0.0944 0.393905,0.29807 0.413653,0.295 0.132292,-0.0205 -0.608977,-0.68292 -0.339072,-0.8943 0.334233,-0.26176 0.483471,0.4542 0.744371,0.54529 0.955905,0.33376 0.378809,-0.37881 0.02552,-0.94543 -0.470747,-0.75499 -0.21112,0.081 -0.318823,0.0421 -0.23934,-0.0865 0.07948,-0.12861 -0.02776,-0.29994 -0.238322,-0.38074 -0.223067,-0.0856 -0.584179,0.12949 -0.865292,0.5154 l -0.482455,0.6623 -0.560531,-0.60926 c -0.308292,-0.3351 -0.811196,-1.08376 -1.117564,-1.66369 -0.306368,-0.57993 -0.557033,-0.9446 -0.557033,-0.81039 0,0.13421 -0.352954,-0.0941 -0.784342,-0.50743 -0.431388,-0.41329 -0.730355,-0.8388 -0.664371,-0.94556 0.06598,-0.10677 -0.05731,-0.34125 -0.273992,-0.52108 -0.216679,-0.17983 -0.393961,-0.22949 -0.393961,-0.11037 0,0.11913 -0.408183,-0.17903 -0.907074,-0.66258 -1.093114,-1.05948 -1.175686,-1.96916 -0.160025,-1.76295 0.368623,0.0748 0.520654,0.0711 0.337846,-0.008 -0.182808,-0.0794 -0.265078,-0.25328 -0.182823,-0.38637 0.197425,-0.31944 -0.06107,-0.3062 -0.700229,0.0359 -0.285551,0.15282 -0.44929,0.39095 -0.363866,0.52917 0.342283,0.55382 -0.603248,0.20425 -1.389195,-0.5136 -0.460605,-0.4207 -0.910151,-0.69222 -0.998991,-0.60338 -0.08884,0.0888 -0.0863,-0.0345 0.0056,-0.27412 0.130617,-0.34038 0.04689,-0.4042 -0.382891,-0.29181 -0.302536,0.0791 -0.550066,0.0196 -0.550066,-0.13233 0,-0.15599 0.364403,-0.23006 0.837401,-0.17019 1.162787,0.14716 4.285878,1.20155 4.49083,1.51616 0.09287,0.14256 0.292308,0.1829 0.443194,0.0896 0.327143,-0.20218 1.636908,0.34912 1.636908,0.68901 0,0.13075 0.118587,0.16444 0.263526,0.0749 0.276963,-0.17117 3.5529,1.50047 4.234391,2.16072 0.352273,0.3413 0.343966,0.42378 -0.07392,0.73392 -0.408518,0.30319 -0.416964,0.37007 -0.06385,0.50557 0.223821,0.0859 0.713278,0.0397 1.087681,-0.10265 0.564272,-0.21453 0.85746,-0.13405 1.713732,0.47044 0.56815,0.4011 1.100319,0.93155 1.182598,1.17878 0.08228,0.24724 0.313234,0.38673 0.513233,0.30998 0.20509,-0.0787 0.557879,0.15691 0.809147,0.5404 0.245031,0.37396 0.532396,0.62624 0.638588,0.5606 0.231974,-0.14336 4.563731,4.26513 5.841229,5.94471 0.498078,0.65484 0.990812,1.25276 1.094964,1.3287 0.188481,0.13743 1.226622,1.61915 1.664332,2.37547 0.12632,0.21828 -0.0872,0.10823 -0.47444,-0.24456 -0.387273,-0.35279 -0.704128,-0.54535 -0.704128,-0.42791 0,0.28399 1.069428,1.20163 1.400378,1.20163 0.3677,0 0.96243,0.83997 0.97246,1.37345 0.005,0.24607 0.14587,0.53236 0.31388,0.63619 0.20472,0.12653 0.23555,0.0662 0.0935,-0.18282 -0.1474,-0.25838 -0.1253,-0.29099 0.0725,-0.10703 0.15647,0.14553 0.32277,0.44035 0.36954,0.65516 0.0803,0.36883 0.18172,0.52491 0.91679,1.41102 0.16641,0.20061 0.49746,0.71076 0.73565,1.13366 0.23819,0.4229 0.66631,1.1261 0.95138,1.56266 0.28507,0.43657 0.66438,1.09141 0.84289,1.45521 0.17852,0.36381 0.56704,1.01865 0.86338,1.45521 0.29633,0.43656 0.68035,1.03188 0.85337,1.32292 0.17303,0.29104 0.90096,1.5048 1.61763,2.69724 0.79849,1.32857 1.18632,2.21286 1.0016,2.28374 -0.16579,0.0636 -0.53676,-0.36813 -0.82438,-0.95945 -0.36476,-0.74991 -0.55002,-0.93455 -0.61244,-0.61041 -0.0492,0.25559 0.12456,0.70124 0.38619,0.99034 0.35937,0.39709 0.39586,0.57498 0.14923,0.7274 -0.24154,0.14928 -0.18677,0.32818 0.21058,0.68778 0.29538,0.26731 0.61595,0.40711 0.71239,0.31067 0.0964,-0.0964 0.41496,0.0333 0.70781,0.28826 0.53164,0.46287 0.53168,0.46251 0.0215,-0.23535 -0.35075,-0.47976 -0.57954,-0.60422 -0.72957,-0.39688 -0.14779,0.20424 -0.18528,0.17889 -0.11576,-0.0783 0.32229,-1.19213 1.5795,0.40281 1.36923,1.73704 -0.0935,0.59327 0.0403,0.97595 0.5237,1.49751 0.35711,0.38534 0.72664,0.9443 0.82117,1.24214 0.0945,0.29785 0.29508,0.46539 0.44566,0.37233 0.17588,-0.1087 0.14541,-0.25054 -0.0852,-0.39666 -0.19743,-0.12511 -0.24892,-0.22929 -0.11442,-0.23152 0.13451,-0.002 -0.0191,-0.28473 -0.3414,-0.62778 -0.32229,-0.34305 -0.64133,-0.96813 -0.709,-1.38906 -0.0995,-0.61894 -0.0702,-0.67784 0.15298,-0.30791 0.15181,0.25158 0.27999,0.54923 0.28486,0.66145 0.005,0.11223 0.16527,0.38264 0.35647,0.60092 0.87559,0.99962 4.76488,7.66396 5.08147,8.70715 0.37907,1.24905 0.50762,8.11034 0.15559,8.30427 -0.10914,0.0601 -0.73627,-0.0325 -1.39362,-0.20584 z m 0.99123,-0.29668 c -0.0879,-0.0879 -0.31612,-0.0973 -0.50712,-0.0209 -0.21106,0.0845 -0.14837,0.14716 0.15985,0.15985 0.27892,0.0115 0.43519,-0.051 0.34727,-0.13896 z m -2.79404,-1.91926 c 0.27497,-0.36572 0.26797,-0.38212 -0.0443,-0.1037 -0.20399,0.1819 -0.73403,0.33255 -1.17786,0.33478 -0.55495,0.003 -0.69454,0.0753 -0.44697,0.23215 0.47245,0.29934 1.26008,0.0807 1.66908,-0.46323 z m 1.77188,-1.5641 c 0.0329,-1.28175 -0.0572,-2.62349 -0.20018,-2.98164 -0.19824,-0.49659 -0.26394,-0.0387 -0.27673,1.9285 -0.009,1.41882 -0.11308,2.57968 -0.23079,2.57968 -0.1177,0 -0.42416,0.15367 -0.68101,0.34148 -0.41779,0.3055 -0.37237,0.34786 0.43097,0.40196 l 0.89797,0.0605 z m 1.14674,1.47363 c -0.24695,-0.24695 -0.3175,-0.17639 -0.3175,0.3175 0,0.49389 0.0705,0.56444 0.3175,0.3175 0.24694,-0.24695 0.24694,-0.38806 0,-0.635 z m -7.4869,-2.49153 c -0.53858,-0.64895 -0.84191,-0.29111 -0.52377,0.61791 0.0111,0.0318 0.20188,-0.0119 0.42388,-0.097 0.31125,-0.11944 0.33411,-0.23865 0.0999,-0.52087 z m 0.8194,-0.63056 c 0,-0.2988 -0.17639,-0.52916 -0.40518,-0.52916 -0.22285,0 -0.47372,-0.1786 -0.55748,-0.39688 -0.0838,-0.21828 -0.40745,-0.39512 -0.7193,-0.39297 -0.53038,0.004 -0.52428,0.0253 0.0945,0.33542 0.3638,0.18234 0.77898,0.59731 0.92263,0.92214 0.3244,0.7336 0.66487,0.76506 0.66487,0.0615 z m -2.11667,-0.49677 c 0,-0.1277 -0.17728,-0.37931 -0.39396,-0.55914 -0.21668,-0.17983 -0.31531,-0.45422 -0.21918,-0.60976 0.0961,-0.15555 0.19345,-0.59666 0.21627,-0.98025 0.0354,-0.59467 -0.0658,-0.69745 -0.6868,-0.69745 -0.53445,0 -0.71886,0.12501 -0.6929,0.46971 0.0195,0.25834 0.0841,0.42096 0.14372,0.36137 0.0596,-0.0596 0.28459,0.0679 0.5,0.28331 0.31196,0.31196 0.32587,0.47091 0.0684,0.78115 -0.2954,0.35595 -0.17835,0.50218 0.33685,0.42083 0.10914,-0.0172 0.19844,0.14726 0.19844,0.36554 0,0.21829 0.11906,0.39688 0.26459,0.39688 0.14552,0 0.26458,-0.10448 0.26458,-0.23219 z m 6.08542,-0.42927 c 0,-0.21828 -0.1786,-0.39687 -0.39688,-0.39687 -0.21828,0 -0.39687,0.17859 -0.39687,0.39687 0,0.21828 0.17859,0.39688 0.39687,0.39688 0.21828,0 0.39688,-0.1786 0.39688,-0.39688 z m 2.27902,-1.92624 c -0.22321,-0.43164 -0.32492,-0.86571 -0.22602,-0.96461 0.0989,-0.0989 -0.0387,-0.096 -0.30566,0.006 -0.39068,0.14991 -0.4544,0.0881 -0.3263,-0.31675 0.0926,-0.29259 -0.0599,-0.83512 -0.3646,-1.2968 -0.28808,-0.43656 -0.52458,-0.65194 -0.52553,-0.47863 -9.6e-4,0.17331 0.11731,0.3887 0.26284,0.47863 0.32225,0.19917 0.35051,0.66146 0.0404,0.66146 -0.12329,0 -0.36509,-0.26789 -0.53735,-0.59531 -0.30234,-0.57467 -0.21956,-0.13453 0.145,0.77101 0.12928,0.3211 0.0824,0.38165 -0.17317,0.2237 -0.2349,-0.14518 -0.28731,-0.11445 -0.15897,0.0932 0.1053,0.17037 0.31021,0.23638 0.45536,0.14667 0.32303,-0.19964 1.00248,0.64852 1.01403,1.26581 0.008,0.40596 0.80344,1.09225 1.01791,0.87778 0.0483,-0.0483 -0.0948,-0.44101 -0.31797,-0.87265 z m -6.51236,-0.85188 c 0,-0.51573 -0.28063,-0.68951 -0.59913,-0.37101 -0.21196,0.21196 0.0654,0.90017 0.36286,0.90017 0.12995,0 0.23627,-0.23812 0.23627,-0.52916 z m -4.46994,-1.28671 c 0.13398,0.21146 0.23018,0.23725 0.23256,0.0623 0.002,-0.16408 -0.17455,-0.44655 -0.39283,-0.62771 -0.44834,-0.37209 -0.53412,-1.05833 -0.13229,-1.05833 0.14552,0 0.26459,-0.20505 0.26459,-0.45567 0,-0.39602 -0.0745,-0.38117 -0.56909,0.11341 -0.5203,0.5203 -0.53861,0.64266 -0.21362,1.42726 0.19551,0.47199 0.40648,0.70514 0.46882,0.51811 0.09,-0.27009 0.16038,-0.26585 0.34186,0.0206 z m -1.48318,-1.88829 c -0.0899,-0.14552 -0.28259,-0.26459 -0.42811,-0.26459 -0.14552,0 -0.191,0.11907 -0.10106,0.26459 0.0899,0.14552 0.28258,0.26458 0.42811,0.26458 0.14552,0 0.19099,-0.11906 0.10106,-0.26458 z m 6.74687,-0.12399 c 0,-0.2367 -0.15512,-0.32905 -0.39687,-0.23628 -0.21828,0.0838 -0.39688,0.25862 -0.39688,0.38857 0,0.12996 0.1786,0.23628 0.39688,0.23628 0.21828,0 0.39687,-0.17486 0.39687,-0.38857 z m 2.62629,-0.51392 c 0.22634,-0.27273 0.23021,-0.42252 0.0144,-0.55593 -0.16251,-0.10043 -0.22919,-0.35534 -0.14817,-0.56646 0.081,-0.21112 0.0378,-0.3162 -0.096,-0.2335 -0.1338,0.0827 -0.31925,0.0274 -0.41212,-0.12287 -0.27404,-0.4434 -0.65762,-0.0252 -0.60128,0.6555 0.0286,0.3461 0.14588,0.57129 0.26053,0.50044 0.11465,-0.0709 0.20846,0.0568 0.20846,0.28365 0,0.51359 0.36513,0.53207 0.7742,0.0392 z m -1.0179,-1.10393 c 0.0127,-0.30823 0.0754,-0.37092 0.15985,-0.15986 0.0764,0.191 0.067,0.4192 -0.0209,0.50712 -0.0879,0.0879 -0.15045,-0.0683 -0.13896,-0.34726 z m -7.95839,0.94809 c 0,-0.14552 -0.0525,-0.26459 -0.11667,-0.26459 -0.0642,0 -0.19027,0.11907 -0.2802,0.26459 -0.0899,0.14552 -0.0374,0.26458 0.11667,0.26458 0.15411,0 0.2802,-0.11906 0.2802,-0.26458 z m -1.25376,-1.52433 c -0.11725,-0.30557 -0.0603,-0.35502 0.21661,-0.18808 0.32069,0.19332 0.32253,0.16094 0.0126,-0.22118 -0.43927,-0.54154 -0.8659,-0.591 -0.66887,-0.0776 0.0781,0.20356 0.0148,0.44871 -0.14059,0.54478 -0.15545,0.0961 -0.28262,0.29373 -0.28262,0.43925 0,0.14552 0.13929,0.1785 0.30954,0.0733 0.21397,-0.13224 0.25462,-0.035 0.13164,0.31511 -0.17181,0.4891 -0.16492,0.4897 0.20145,0.0177 0.20865,-0.26881 0.30777,-0.67529 0.22027,-0.9033 z m 8.34538,0.0158 c 0.059,-0.39803 -0.0954,-0.57462 -0.58381,-0.66799 -0.57872,-0.11063 -0.63028,-0.064 -0.40158,0.36335 0.14432,0.26966 0.19164,0.49028 0.10517,0.49028 -0.0865,0 -0.0797,0.12535 0.0149,0.27855 0.2608,0.42198 0.77485,0.14621 0.86528,-0.46419 z m -6.14668,0.0722 c 0.51273,-0.51273 0.47548,-0.68036 -0.15119,-0.68036 -0.35278,0 -0.52916,0.17639 -0.52916,0.52917 0,0.62667 0.16762,0.66392 0.68035,0.15119 z m 5.13643,-1.80484 c -0.003,-0.48139 -0.0531,-0.51937 -0.26053,-0.19844 -0.33151,0.51297 -0.33151,0.79375 0,0.79375 0.14552,0 0.26276,-0.26789 0.26053,-0.59531 z m -2.3772,-4.77743 c 0,-0.12817 -0.23418,-0.29429 -0.52041,-0.36914 -0.28622,-0.0748 -0.5919,-0.36135 -0.67928,-0.63668 -0.0874,-0.27533 -0.26993,-0.5006 -0.40564,-0.5006 -0.3942,0 -0.28534,0.84174 0.17458,1.34994 0.42782,0.47274 1.43075,0.58243 1.43075,0.15648 z m -0.76946,-2.77715 c -0.1607,-0.0536 -0.22487,-0.20628 -0.14262,-0.33937 0.0823,-0.13309 0.0164,-0.24199 -0.14625,-0.24199 -0.1627,0 -0.24176,-0.0893 -0.17568,-0.19843 0.0661,-0.10914 -0.0415,-0.34779 -0.23904,-0.53033 -0.2917,-0.26954 -0.41305,-0.23123 -0.64593,0.20391 -0.15771,0.29468 -0.20331,0.67079 -0.10133,0.83579 0.11366,0.18391 0.0672,0.22694 -0.12006,0.1112 -0.16801,-0.10383 -0.30546,-0.50323 -0.30546,-0.88754 0,-0.49567 -0.0822,-0.6166 -0.28269,-0.41608 -0.20052,0.20052 -0.16322,0.5686 0.12834,1.26639 0.36716,0.87872 0.4538,0.94093 0.81185,0.58289 0.48241,-0.48241 0.51496,-0.88565 0.0831,-1.0296 -0.22516,-0.0751 -0.23273,-0.15841 -0.026,-0.28617 0.1774,-0.10963 0.4833,0.28805 0.78072,1.01494 0.39622,0.96836 0.50652,1.0829 0.58112,0.60349 0.0507,-0.32544 -0.0394,-0.63553 -0.20008,-0.6891 z m -5.31596,-0.0522 c 0,-0.14552 -0.12609,-0.26458 -0.2802,-0.26458 -0.15411,0 -0.20661,0.11906 -0.11667,0.26458 0.0899,0.14552 0.21602,0.26458 0.2802,0.26458 0.0642,0 0.11667,-0.11906 0.11667,-0.26458 z m -5.020518,-0.78313 c 0.128389,0.20774 0.191631,0.0695 0.16641,-0.36381 -0.04738,-0.81405 -0.528385,-1.08134 -1.250474,-0.69489 -0.604566,0.32356 -0.681803,0.56823 -0.110124,0.34886 0.29718,-0.11404 0.353583,-0.0328 0.219621,0.31629 -0.12347,0.32176 -0.08274,0.40947 0.129291,0.27843 0.174369,-0.10777 0.318668,-0.0401 0.330434,0.15503 0.01635,0.27103 0.05208,0.26792 0.16432,-0.0143 0.113724,-0.28597 0.186324,-0.29127 0.350522,-0.0256 z m 8.460108,-1.52124 c -0.21829,-0.0803 -0.60524,-0.32744 -0.8599,-0.54929 -0.25466,-0.22184 -0.46302,-0.28965 -0.46302,-0.15068 0,0.43711 0.61317,0.88851 1.17739,0.86679 0.38146,-0.0147 0.42464,-0.0642 0.14553,-0.16682 z m -9.168754,-1.0287 c 0.349229,-0.47937 0.386953,-0.65668 0.132292,-0.62179 -0.717494,0.0983 -1.017709,-0.0229 -1.017709,-0.41077 0,-0.21828 -0.127086,-0.39687 -0.282413,-0.39687 -0.162008,0 -0.210808,-0.22561 -0.114462,-0.52917 0.259768,-0.81845 -0.06892,-0.62546 -0.563258,0.33073 -0.37295,0.72139 -0.379022,0.80554 -0.03769,0.52242 0.33551,-0.2783 0.435481,-0.26291 0.570053,0.0878 0.243031,0.63333 0.190043,0.83296 -0.101393,0.38199 -0.312558,-0.48365 -0.312558,-0.0659 0,0.66146 0.125065,0.29104 0.235759,0.37331 0.245987,0.18282 0.01023,-0.19049 0.139601,-0.27156 0.287496,-0.18015 0.147894,0.0914 0.200399,0.27702 0.116676,0.41249 -0.344801,0.5579 0.313316,0.17828 0.764425,-0.44094 z m 8.777044,-0.19378 c -0.22214,-0.33904 -0.31419,-0.71531 -0.20454,-0.83617 0.10966,-0.12085 0.0557,-0.1373 -0.1198,-0.0366 -0.34355,0.19717 -0.16359,0.96932 0.29987,1.28666 0.4508,0.30869 0.4547,0.24268 0.0245,-0.41394 z m -0.83339,-0.50805 c 0.24626,-0.91893 0.19959,-1.16857 -0.21847,-1.16857 -0.21188,0 -0.33163,0.0867 -0.26611,0.19276 0.0655,0.10602 -0.0588,0.26103 -0.27622,0.34447 -0.21744,0.0834 -0.39535,0.34678 -0.39535,0.5852 0,0.28307 0.14248,0.37881 0.41061,0.27592 0.23546,-0.0904 0.34166,-0.046 0.24897,0.10398 -0.0889,0.14386 -0.0494,0.26156 0.0877,0.26156 0.13714,0 0.32113,-0.26789 0.40888,-0.59532 z m -9.894183,-1.50869 c 0.220953,-0.41285 0.1594,-0.62552 -0.306731,-1.05979 -0.373889,-0.34833 -0.6746,-0.45184 -0.837984,-0.28846 -0.290455,0.29046 0.284557,1.14747 0.627631,0.93544 0.115461,-0.0714 0.147616,0.10854 0.07145,0.39978 -0.176988,0.67681 0.08627,0.68451 0.44563,0.013 z m 2.917195,-0.42515 c 0,-0.22687 -0.119063,-0.33891 -0.264583,-0.24897 -0.145521,0.0899 -0.264584,0.27556 -0.264584,0.41249 0,0.13693 0.119063,0.24897 0.264584,0.24897 0.14552,0 0.264583,-0.18562 0.264583,-0.41249 z m 6.085418,-0.36565 c 0,-0.76283 -0.40834,-0.87474 -0.47008,-0.12883 -0.0292,0.35331 0.0646,0.64239 0.20846,0.64239 0.14389,0 0.26162,-0.2311 0.26162,-0.51356 z m -0.98152,-1.30892 c 0.25571,-0.31619 0.25,-0.35362 -0.0284,-0.18614 -0.22401,0.13478 -0.33092,0.0821 -0.29939,-0.14764 0.10103,-0.73593 -0.0254,-0.99763 -0.41052,-0.84984 -0.21828,0.0838 -0.39688,0.27136 -0.39688,0.41688 0,0.14552 0.18478,0.19368 0.41062,0.10701 0.28161,-0.10806 0.34594,-0.0546 0.20475,0.17013 -0.11323,0.18024 -0.22833,0.74442 -0.25579,1.25374 -0.0455,0.84472 -0.0277,0.8692 0.2028,0.27884 0.13899,-0.35596 0.39674,-0.8253 0.57277,-1.04298 z m 0.18777,0.9975 c 0,-0.14552 -0.11906,-0.191 -0.26458,-0.10107 -0.14553,0.0899 -0.26459,0.28259 -0.26459,0.42811 0,0.14552 0.11906,0.191 0.26459,0.10106 0.14552,-0.0899 0.26458,-0.28258 0.26458,-0.4281 z m -6.350001,-1.14378 c 0,-0.27926 -0.507766,-0.39659 -0.658791,-0.15223 -0.0914,0.1479 0.01943,0.2689 0.246301,0.2689 0.226869,0 0.41249,-0.0525 0.41249,-0.11667 z m 4.199581,-2.44766 c -0.24043,-0.2964 -0.2524,-0.38116 -0.0354,-0.25084 0.22379,0.13442 0.27691,0.0645 0.16753,-0.22055 -0.11633,-0.30315 -0.25185,-0.34127 -0.49523,-0.13928 -0.24339,0.20199 -0.37891,0.16388 -0.49524,-0.13928 -0.0924,-0.24078 -0.0495,-0.34898 0.10139,-0.25572 0.36812,0.22751 0.32636,-0.22811 -0.0559,-0.61041 -0.863736,-0.86373 -1.057593,0.56564 -0.20136,1.48469 0.67009,0.71927 1.58753,0.83811 1.01427,0.13139 z m -2.612081,-0.87525 c 0,-0.29104 -0.119063,-0.52917 -0.264584,-0.52917 -0.145521,0 -0.264583,0.23813 -0.264583,0.52917 0,0.29104 0.119062,0.52917 0.264583,0.52917 0.145521,0 0.264584,-0.23813 0.264584,-0.52917 z m -3.96875,-1.71979 c 0,-0.21828 -0.178594,-0.39688 -0.396875,-0.39688 -0.218282,0 -0.396875,0.1786 -0.396875,0.39688 0,0.21828 0.178593,0.39687 0.396875,0.39687 0.218281,0 0.396875,-0.17859 0.396875,-0.39687 z m 4.17148,-0.64772 c 0.275347,-0.7498 0.27142,-0.9759 -0.02205,-1.26937 -0.299705,-0.2997 -0.35707,-0.29315 -0.35707,0.0408 0,0.21881 0.09922,0.33651 0.220486,0.26156 0.40573,-0.25075 0.226284,0.3454 -0.308681,1.0255 -0.611755,0.77772 -0.66246,1.01279 -0.198437,0.91999 0.181901,-0.0364 0.481489,-0.47668 0.665751,-0.97845 z m -9.472589,-0.77327 c 0.261037,-0.50099 0.260145,-0.58604 -0.0044,-0.42252 -0.252839,0.15626 -0.296592,-0.0537 -0.184838,-0.88686 0.124655,-0.92938 0.09202,-1.0372 -0.219589,-0.72559 -0.2013,0.2013 -0.484151,0.4064 -0.628557,0.45577 -0.39559,0.13526 -0.0074,1.2804 0.434087,1.2804 0.275893,0 0.332382,0.16742 0.200856,0.59531 -0.215125,0.69986 -0.05534,0.58214 0.402472,-0.29651 z m -0.76342,-0.98231 c 0.0127,-0.30822 0.07539,-0.37092 0.159853,-0.15985 0.07643,0.19099 0.06703,0.4192 -0.02089,0.50712 -0.08792,0.0879 -0.150453,-0.0684 -0.138965,-0.34727 z m 7.916612,0.41892 c 0,-0.14552 -0.126089,-0.26458 -0.280198,-0.26458 -0.154109,0 -0.206614,0.11906 -0.116677,0.26458 0.08994,0.14552 0.216026,0.26459 0.280198,0.26459 0.06417,0 0.116677,-0.11907 0.116677,-0.26459 z m 0.661458,-0.52916 c 0.08994,-0.14552 0.03743,-0.26459 -0.116676,-0.26459 -0.154109,0 -0.280199,0.11907 -0.280199,0.26459 0,0.14552 0.05251,0.26458 0.116677,0.26458 0.06417,0 0.190262,-0.11906 0.280198,-0.26458 z m -0.396875,-0.82206 c 0,-0.38037 -0.459083,-0.27138 -0.619676,0.14712 -0.09833,0.25626 -0.01998,0.33461 0.236276,0.23628 0.21087,-0.0809 0.3834,-0.25345 0.3834,-0.3834 z m -0.643617,-0.79431 c 0.09878,-0.15983 -0.132712,-0.086 -0.514431,0.16414 -0.381719,0.25012 -0.694035,0.50478 -0.694035,0.56592 0,0.1914 1.019697,-0.42463 1.208466,-0.73006 z m 0.267571,-0.70504 c -0.455596,-0.43637 -0.461235,-0.43073 -0.126558,0.12656 0.192654,0.32081 0.407232,0.52633 0.47684,0.45672 0.06961,-0.0696 -0.08802,-0.33208 -0.350282,-0.58328 z m -2.005204,-0.0755 c 0,-0.13693 -0.119062,-0.24897 -0.264583,-0.24897 -0.145521,0 -0.264583,0.18562 -0.264583,0.41249 0,0.22687 0.119062,0.33891 0.264583,0.24897 0.145521,-0.0899 0.264583,-0.27556 0.264583,-0.41249 z m 0.729609,-1.22712 c -0.392465,-0.39247 -0.795826,-0.63132 -0.896358,-0.53079 -0.256783,0.25678 0.690772,1.24436 1.193931,1.24436 0.304721,0 0.225121,-0.19088 -0.297573,-0.71357 z m -5.095234,-2.19685 c 0.08994,-0.14552 0.03743,-0.26458 -0.116676,-0.26458 -0.154109,0 -0.280199,0.11906 -0.280199,0.26458 0,0.14552 0.0525,0.26459 0.116677,0.26459 0.06417,0 0.190262,-0.11907 0.280198,-0.26459 z m 2.451083,-0.19843 c -0.05569,-0.25467 -0.242037,-0.43359 -0.414098,-0.3976 -0.40628,0.085 -1.388932,-0.75572 -1.214066,-1.03866 0.07389,-0.11957 0.0012,-0.21739 -0.16146,-0.21739 -0.162697,0 -0.210859,-0.13746 -0.107026,-0.30546 0.124791,-0.20192 0.07163,-0.23306 -0.156816,-0.0919 -0.218583,0.13509 -0.481335,0.0286 -0.714917,-0.28985 -0.205086,-0.27957 -0.687279,-0.50345 -1.084341,-0.50345 -0.528067,0 -0.715319,-0.13269 -0.716147,-0.50749 -0.0014,-0.65349 -0.418959,-0.78567 -1.042186,-0.32996 -0.53655,0.39234 -0.403625,0.81396 0.39063,1.23903 0.428332,0.22924 0.481493,0.19818 0.337276,-0.19702 -0.152853,-0.41886 -0.107828,-0.41344 0.420091,0.0505 0.553983,0.48686 0.560988,0.53303 0.11101,0.73167 -0.328469,0.145 -0.250293,0.16733 0.247322,0.0706 0.47317,-0.092 0.727604,-0.0286 0.727604,0.18115 0,0.25096 0.07049,0.25204 0.317683,0.005 0.247188,-0.24718 0.567294,-0.0534 1.442555,0.87313 1.172155,1.24086 1.789902,1.51892 1.616886,0.72779 z m -3.310978,-2.09346 c -0.378475,-0.15272 -0.449607,-0.61852 -0.09445,-0.61852 0.129952,0 0.304809,0.17859 0.388571,0.39687 0.08376,0.21828 0.126267,0.38748 0.09445,0.37599 -0.03181,-0.0115 -0.20667,-0.0809 -0.388571,-0.15434 z m -5.446007,0.84832 c 0,-0.21188 -0.101161,-0.32271 -0.224802,-0.2463 -0.123641,0.0764 -0.156302,0.24977 -0.07258,0.38524 0.213949,0.34617 0.297382,0.3072 0.297382,-0.13894 z m -0.410352,-2.33581 c -0.217216,-0.21721 -0.296274,-0.12395 -0.299255,0.35303 -0.0031,0.49704 -0.06074,0.55861 -0.247126,0.26399 -0.13369,-0.21134 -0.184372,-0.47923 -0.112625,-0.59532 0.07175,-0.11609 0.0044,-0.21107 -0.14975,-0.21107 -0.369898,0 -0.35496,0.41664 0.03747,1.04501 0.311886,0.49941 0.324478,0.49894 0.692079,-0.0259 0.275499,-0.39333 0.296425,-0.61254 0.07921,-0.82976 z m 1.821463,-0.19342 c 0.331072,-0.21735 0.29817,-0.28759 -0.198438,-0.42369 -0.327422,-0.0897 -0.595312,-0.26832 -0.595312,-0.39687 0,-0.12854 -0.238125,-0.23372 -0.529167,-0.23372 -0.291041,0 -0.529166,0.11906 -0.529166,0.26458 0,0.14552 0.238125,0.26459 0.529166,0.26459 0.293982,0 0.529167,0.17639 0.529167,0.39687 0,0.45863 0.233101,0.49629 0.79375,0.12824 z m -3.241022,-0.59126 c -0.06057,-0.1819 -0.334589,-0.37423 -0.608939,-0.42739 -0.431562,-0.0836 -0.450994,-0.039 -0.144116,0.33073 0.419682,0.50568 0.910207,0.56865 0.753055,0.0967 z m -0.86002,-0.99219 c 0.08994,-0.14552 0.03743,-0.26458 -0.116677,-0.26458 -0.154109,0 -0.280198,0.11906 -0.280198,0.26458 0,0.14552 0.05251,0.26459 0.116677,0.26459 0.06417,0 0.190261,-0.11907 0.280198,-0.26459 z m 0.267324,-0.52916 c 0.341506,0 0.807105,-0.18619 1.034664,-0.41375 0.384808,-0.3848 1.092097,-0.29995 0.844384,0.1013 -0.06117,0.0991 0.187032,0.19807 0.55156,0.21997 0.636504,0.0383 0.629623,0.0197 -0.173587,-0.4688 -0.460001,-0.27974 -0.950442,-0.43812 -1.089868,-0.35195 -0.139426,0.0862 -0.668272,-0.0997 -1.175212,-0.41298 -0.50694,-0.3133 -1.070316,-0.50967 -1.251946,-0.43636 -0.196695,0.0794 -0.142999,0.14174 0.132785,0.15418 0.567434,0.0256 0.604621,0.63233 0.06615,1.07922 -0.523535,0.4345 -0.509136,0.89344 0.02164,0.68977 0.230183,-0.0883 0.697928,-0.1606 1.039434,-0.1606 z m -0.04684,-0.63624 c 0,-0.2044 0.158066,-0.31099 0.351258,-0.23686 0.193192,0.0741 0.285384,0.24138 0.204872,0.37165 -0.223933,0.36233 -0.55613,0.28182 -0.55613,-0.13479 z m -2.377015,-0.54592 c 0.08197,-0.21362 0.0054,-0.47083 -0.17013,-0.57158 -0.175546,-0.10075 -0.23091,-0.0858 -0.123032,0.0333 0.107878,0.11908 0.06353,0.37629 -0.09854,0.57158 -0.185273,0.22324 -0.194931,0.35508 -0.02601,0.35508 0.14777,0 0.335743,-0.17478 0.417717,-0.38841 z m -2.028365,-1.92551 c -0.30297,-0.30297 -0.498504,-0.32285 -0.880412,-0.0895 -0.467734,0.28577 -0.465927,0.29651 0.03822,0.22721 0.302232,-0.0415 0.502161,0.065 0.466195,0.24848 -0.03761,0.19182 0.103882,0.25718 0.351245,0.16225 0.364692,-0.13994 0.367651,-0.20551 0.02475,-0.54842 z M 112.1812,234.7515 c -0.25028,-0.15468 -0.27443,-0.34864 -0.0855,-0.6863 0.24645,-0.44038 0.28256,-0.43492 0.56067,0.0847 0.32765,0.61223 0.0699,0.93849 -0.4752,0.60158 z m -11.75436,-16.27102 c -0.1029,-0.26813 -0.14179,-0.53281 -0.0864,-0.58817 0.19928,-0.19928 0.9326,0.22611 1.08803,0.63115 0.1277,0.33278 0.0849,0.35252 -0.2184,0.10079 -0.29172,-0.24211 -0.402,-0.23863 -0.48666,0.0153 -0.0693,0.20795 -0.17808,0.14959 -0.29654,-0.15911 z m -7.270267,-12.16361 c -0.504074,-0.85435 -0.50526,-1.21275 -0.004,-1.21275 0.121267,0 0.222309,0.26789 0.224537,0.59531 0.0028,0.41102 0.07105,0.48971 0.220486,0.25418 0.139544,-0.21995 0.216435,-0.0555 0.216435,0.46302 0,0.44228 -0.02793,0.80416 -0.06206,0.80416 -0.03413,0 -0.302057,-0.40677 -0.595386,-0.90392 z m 8.913977,-14.90494 c -0.32911,-0.41964 -0.31975,-0.429 0.0999,-0.0999 0.44073,0.34564 0.58089,0.56291 0.36313,0.56291 -0.0549,0 -0.2633,-0.20836 -0.46302,-0.46302 z m -15.450678,-4.46327 c 0.235605,-0.2356 0.508552,-0.34819 0.606549,-0.25019 0.098,0.098 0.003,0.28894 -0.211037,0.42432 -0.625067,0.3953 -0.86105,0.29141 -0.395512,-0.17413 z"
         id="path3" /><path
         style="display:inline;fill:#494949;fill-opacity:1"
         d="m 126.02329,269.66284 c 0,-2.25557 0.0406,-3.1783 0.0902,-2.05052 0.0496,1.12779 0.0496,2.97326 0,4.10104 -0.0496,1.12779 -0.0902,0.20506 -0.0902,-2.05052 z m -27.001542,1.5875 c 0,-1.23692 0.04558,-1.74294 0.10128,-1.12448 0.0557,0.61847 0.0557,1.6305 0,2.24896 -0.0557,0.61847 -0.10128,0.11245 -0.10128,-1.12448 z m 17.126352,0.11025 c 0.0127,-0.30823 0.0754,-0.37092 0.15986,-0.15986 0.0764,0.191 0.067,0.4192 -0.0209,0.50712 -0.0879,0.0879 -0.15046,-0.0684 -0.13897,-0.34726 z m 0.0611,-2.09462 c 0.001,-0.87313 0.0509,-1.19842 0.10977,-0.72287 0.0589,0.47555 0.0577,1.18993 -0.003,1.5875 -0.0604,0.39758 -0.10855,0.008 -0.10707,-0.86463 z m -0.0611,-2.4033 c 0.0127,-0.30822 0.0754,-0.37092 0.15986,-0.15985 0.0764,0.19099 0.067,0.4192 -0.0209,0.50712 -0.0879,0.0879 -0.15046,-0.0684 -0.13897,-0.34727 z m -35.789244,-0.82015 c 0.190996,-0.0764 0.419199,-0.067 0.507118,0.0209 0.08792,0.0879 -0.06835,0.15045 -0.347265,0.13896 -0.308225,-0.0127 -0.37092,-0.0754 -0.159853,-0.15985 z m 45.578834,-1.03193 c 0.0127,-0.30823 0.0754,-0.37092 0.15985,-0.15986 0.0764,0.191 0.067,0.4192 -0.0209,0.50712 -0.0879,0.0879 -0.15045,-0.0684 -0.13896,-0.34726 z m -7.65203,-50.1165 c 0,-0.3638 0.0601,-0.51263 0.13345,-0.33073 0.0734,0.18191 0.0734,0.47956 0,0.66146 -0.0734,0.1819 -0.13345,0.0331 -0.13345,-0.33073 z"
         id="path2" /><path
         style="display:inline;fill:#000000;fill-opacity:1"
         d="m 78.732984,273.52467 c -2.453226,-0.67446 -3.615039,-2.13656 -3.615774,-4.5503 -8.22e-4,-2.69868 2.082572,-4.41203 5.400366,-4.44117 2.569216,-0.0226 4.266065,0.79826 5.134624,2.48381 0.729073,1.41486 0.652041,3.22463 -0.195634,4.5962 -1.041666,1.68545 -4.239197,2.59448 -6.723582,1.91146 z m 3.879645,-2.02178 c 1.272416,-1.00088 1.411682,-3.26785 0.277728,-4.52085 -1.088745,-1.20305 -3.915759,-1.11386 -4.74365,0.14967 -1.006583,1.53623 -0.684369,3.7933 0.644639,4.5156 1.054434,0.57308 3.002747,0.49944 3.821283,-0.14442 z m 9.433697,2.1598 c -3.754354,-0.77567 -5.205517,-4.71354 -2.741914,-7.44046 1.15139,-1.27445 2.30552,-1.67008 4.796656,-1.64427 1.588801,0.0165 2.151617,0.14454 3.114298,0.7087 1.978765,1.15964 2.272745,2.25952 0.603931,2.25952 -0.844645,0 -1.287747,-0.17029 -1.853524,-0.71234 -0.604579,-0.57923 -0.990663,-0.71234 -2.066041,-0.71234 -2.261217,0 -3.632397,1.63459 -3.153261,3.75901 0.333921,1.48056 1.046533,1.98999 2.951764,2.11014 1.399497,0.0883 1.773071,0.0148 2.386793,-0.46933 1.14306,-0.9017 0.951559,-1.32931 -0.595313,-1.32931 -1.234722,0 -1.322916,-0.0441 -1.322916,-0.66146 0,-0.65656 0.01764,-0.66146 2.38125,-0.66146 h 2.38125 v 2.38125 2.38125 h -1.058334 c -0.772269,0 -1.058333,-0.10911 -1.058333,-0.40367 0,-0.35565 -0.08695,-0.3587 -0.73109,-0.0256 -0.942492,0.48738 -2.850739,0.70509 -4.035216,0.46037 z m 47.979894,-0.0841 c -0.20265,-0.26333 -2.93184,-6.58334 -3.71897,-8.61206 -0.092,-0.23724 0.24075,-0.33073 1.17725,-0.33073 h 1.30557 l 1.17014,3.30411 c 0.64357,1.81726 1.22966,3.3053 1.30242,3.30676 0.0728,0.001 0.60184,-1.36684 1.17572,-3.04067 0.57388,-1.67383 1.12119,-3.16914 1.21622,-3.32292 0.095,-0.15377 0.71258,-0.24255 1.3723,-0.19729 l 1.19951,0.0823 -1.90633,4.49792 -1.90633,4.49791 -1.06144,0.0793 c -0.64358,0.0481 -1.16562,-0.0561 -1.32606,-0.26458 z m -76.815671,-4.44487 v -4.49792 h 1.295256 1.295257 l 2.210473,2.96322 2.210472,2.96322 0.07481,-2.96322 0.07481,-2.96322 h 1.181959 1.18196 v 4.49792 4.49791 l -1.256771,-0.009 -1.256771,-0.009 -2.248958,-3.04735 -2.248958,-3.04735 -0.07454,3.05631 -0.07454,3.0563 h -1.182229 -1.182228 z m 39.491891,0 2.14712,-4.49792 h 1.40883 1.40883 l 0.62636,1.38906 c 0.81153,1.79972 3.05142,6.5462 3.37116,7.14375 0.22157,0.41407 0.0986,0.46302 -1.16361,0.46302 -1.37281,0 -1.42051,-0.0253 -1.74622,-0.92604 l -0.33486,-0.92604 h -2.18283 -2.18283 l -0.4416,0.92604 c -0.41673,0.87389 -0.51525,0.92604 -1.74953,0.92604 h -1.30793 z m 4.38341,-0.33073 c -0.84552,-2.24196 -0.89694,-2.24157 -1.78586,0.0136 l -0.54214,1.37542 h 1.42593 1.42593 z m 6.66012,0.35669 v -4.52388 h 3.25122 c 2.84547,0 3.39857,0.0743 4.43177,0.59531 2.28536,1.15244 2.98923,4.11567 1.49797,6.30629 -1.20382,1.76838 -1.70811,1.95243 -5.62806,2.05405 l -3.5529,0.0921 z m 6.46028,2.11138 c 1.36538,-1.28271 1.02959,-4.09183 -0.56822,-4.75367 -0.43319,-0.17944 -1.37057,-0.28924 -2.08307,-0.24402 l -1.29545,0.0822 -0.0566,2.51354 c -0.0311,1.38245 3.5e-4,2.67656 0.0699,2.8758 0.21671,0.6205 3.14384,0.26786 3.93338,-0.47387 z m 5.92192,-1.70389 c -0.0435,-2.23545 -0.0406,-4.25952 0.006,-4.49792 0.075,-0.37982 0.60691,-0.43345 4.29948,-0.43345 h 4.21393 v 0.79375 0.79375 h -3.04271 -3.04271 v 0.92604 0.92604 h 2.77813 2.77812 v 0.79375 0.79375 h -2.77812 -2.77813 v 1.19063 1.19062 h 3.175 3.175 v 0.79375 0.79375 h -4.35269 -4.35268 z M 113.2168,257.33354 c -6.68682,-1.23037 -12.00682,-4.04577 -16.281381,-8.61629 -2.80678,-3.00112 -2.234868,-2.09221 -19.53452,-31.04503 l -4.268475,-7.14375 -0.06758,23.34948 -0.06758,23.34948 h -6.877729 -6.877729 v -37.70817 -37.70817 l 0.727604,0.16607 c 3.886492,0.88701 8.033749,2.79793 11.120789,5.12408 4.335988,3.26727 7.070014,6.80449 13.30175,17.20952 4.579381,7.64612 16.713871,27.60379 18.059611,29.70275 3.97674,6.20257 11.32165,9.90025 17.80777,8.96505 4.52702,-0.65274 9.3365,-3.9949 12.37425,-8.59904 2.80389,-4.24967 3.69541,-7.3168 3.7027,-12.73855 0.0126,-9.34449 -3.54382,-16.43033 -10.53013,-20.98049 -2.06266,-1.3434 -5.26272,-2.83512 -6.69754,-3.12209 l -0.73243,-0.14649 0.0486,9.14797 c 0.0267,5.03139 -0.033,9.14797 -0.13274,9.14797 -0.0997,0 -2.08613,-3.11885 -4.41421,-6.93079 -7.93698,-12.99579 -10.13243,-16.04373 -14.746406,-20.47242 -2.276884,-2.18545 -4.730489,-4.11952 -7.775867,-6.12935 -0.396803,-0.26188 1.991446,-0.31032 11.939393,-0.24217 13.63078,0.0934 14.77554,0.19797 19.57917,1.78889 9.29548,3.0786 18.07904,10.25466 22.51691,18.39605 3.8071,6.98421 5.56298,16.22508 4.59451,24.18007 -1.02785,8.4428 -4.60921,15.49817 -11.21014,22.08423 -3.10578,3.09879 -6.46198,5.43851 -9.82262,6.84767 -3.83056,1.60621 -6.02052,2.04041 -10.84116,2.14946 -2.32833,0.0527 -4.53099,0.041 -4.89479,-0.0259 z"
         id="path1" /></g></g></svg>
